<svg xmlns="http://www.w3.org/2000/svg" version="1.1" xmlns:xlink="http://www.w3.org/1999/xlink" xmlns:svgjs="http://svgjs.dev/svgjs" viewBox="0 0 800 800" opacity="0.71"><defs><filter id="bbburst-blur-1" x="-100%" y="-100%" width="400%" height="400%"><feGaussianBlur in="SourceGraphic" stdDeviation="1"></feGaussianBlur></filter><filter id="bbburst-blur-2" x="-100%" y="-100%" width="400%" height="400%"><feGaussianBlur in="SourceGraphic" stdDeviation="2"></feGaussianBlur></filter><filter id="bbburst-blur-3" x="-100%" y="-100%" width="400%" height="400%"><feGaussianBlur in="SourceGraphic" stdDeviation="4"></feGaussianBlur></filter><filter id="bbburst-blur-4" x="-100%" y="-100%" width="400%" height="400%"><feGaussianBlur in="SourceGraphic" stdDeviation="12"></feGaussianBlur></filter><symbol id="bbburst-shape-1" viewBox="0 0 194 167"><path d="m97 0 96.129 166.5H.871L97 0Z"></path></symbol><symbol id="bbburst-shape-5" viewBox="0 0 145 145"><circle cx="72.5" cy="72.5" r="72.5"></circle></symbol><symbol id="bbburst-shape-8" viewBox="0 0 87 168"><path d="m12 12 31.2546 18.0749c16.4102 9.4902 20.014 31.6325 7.4603 45.8369L36.3296 92.1884c-12.5684 14.2206-8.9394 36.3916 7.5068 45.8636L75 156" stroke-width="14" stroke-linecap="round" stroke-linejoin="round"></path></symbol><symbol id="bbburst-shape-10" viewBox="0 0 145 145"><circle cx="72.5" cy="72.5" r="61.5" fill="none" stroke-width="22"></circle></symbol><symbol id="bbburst-shape-13" viewBox="0 0 159 159"><path stroke-width="22" d="M11 11h137v137H11z"></path></symbol></defs><use xlink:href="#bbburst-shape-8" width="26.38543632442946" opacity="0.1800020522954915" transform="matrix(1.159364550096642,-0.4673048683452921,0.4673048683452921,1.159364550096642,560.9292000472902,7.879589849681395)" fill="none" stroke="#00a19d" filter="url(#bbburst-blur-3)"></use><use xlink:href="#bbburst-shape-5" width="44.432656898759895" opacity="-0.06976351637011158" transform="matrix(1.6416568331043269,-0.6061871347380049,0.6061871347380049,1.6416568331043269,-219.20806550520564,-583.7271009184497)" fill="#00a19d" filter="url(#bbburst-blur-4)"></use><use xlink:href="#bbburst-shape-1" width="18.67284287397156" opacity="0.9192389900162331" transform="matrix(0.8522196475615323,-0.5231841667234375,0.5231841667234375,0.8522196475615323,208.7637966055689,38.60604246367154)" fill="#ffbd9b"></use><use xlink:href="#bbburst-shape-10" width="19.55338229020576" opacity="0.849950654451278" transform="matrix(0.804734944564126,-0.593634288933324,0.593634288933324,0.804734944564126,199.64404388133042,134.28202214786194)" fill="none" stroke="#63b4d1"></use><use xlink:href="#bbburst-shape-10" width="47.90774001354063" opacity="0.1895105800133442" transform="matrix(1.2487230609979962,-0.05648643139546523,0.05648643139546523,1.2487230609979962,456.83904337148823,249.80698617901885)" fill="none" stroke="#00a19d" filter="url(#bbburst-blur-3)"></use><use xlink:href="#bbburst-shape-10" width="32.873568723608024" opacity="-0.07457662153931222" transform="matrix(1.7282165644367313,0.2752589806100822,-0.2752589806100822,1.7282165644367313,832.5796733221151,-628.5440572202103)" fill="none" stroke="#2c2891" filter="url(#bbburst-blur-4)"></use><use xlink:href="#bbburst-shape-10" width="29.578343908924623" opacity="0.4124123794313018" transform="matrix(0.8357352460659213,-0.5491325873440166,0.5491325873440166,0.8357352460659213,353.72610545869895,262.0185954566867)" fill="none" stroke="#63b4d1" filter="url(#bbburst-blur-2)"></use><use xlink:href="#bbburst-shape-10" width="44.154491933318056" opacity="-0.07375653061060672" transform="matrix(1.5506707658941126,-0.8111227871298934,0.8111227871298934,1.5506707658941126,386.023682902568,136.2388912394049)" fill="none" stroke="#63b4d1" filter="url(#bbburst-blur-4)"></use><use xlink:href="#bbburst-shape-8" width="17.699257908855273" opacity="0.6724021394288608" transform="matrix(0.8308006474041322,-0.5565701072397572,0.5565701072397572,0.8308006474041322,24.311147972261125,50.21322631743715)" fill="none" stroke="#2c2891" filter="url(#bbburst-blur-1)"></use><use xlink:href="#bbburst-shape-1" width="21.89029403625303" opacity="0.6190475282737539" transform="matrix(0.8941498715615719,0.4477678049909623,-0.4477678049909623,0.8941498715615719,423.12080413352703,-52.07389992166168)" fill="#2c2891" filter="url(#bbburst-blur-1)"></use><use xlink:href="#bbburst-shape-10" width="20.09485144171213" opacity="0.9058718579510806" transform="matrix(0.9844941530166355,-0.17541739559136524,0.17541739559136524,0.9844941530166355,304.867989905242,-31.620060221721417)" fill="none" stroke="#00a19d"></use><use xlink:href="#bbburst-shape-10" width="18.69055629473678" opacity="0.9546574145909025" transform="matrix(0.836477942451323,0.5480005947007732,-0.5480005947007732,0.836477942451323,627.2106636185811,73.16466669076607)" fill="none" stroke="#2c2891"></use><use xlink:href="#bbburst-shape-13" width="23.562129711662713" opacity="0.5094614007130911" transform="matrix(0.9985673817993259,-0.053508728320147164,0.053508728320147164,0.9985673817993259,578.0266201171779,65.42307415597031)" fill="none" stroke="#63b4d1" filter="url(#bbburst-blur-2)"></use><use xlink:href="#bbburst-shape-8" width="25.302300594368102" opacity="0.49075223100002874" transform="matrix(0.8970340853952926,0.4419613666815584,-0.4419613666815584,0.8970340853952926,790.7443017564173,-6.251949902310798)" fill="none" stroke="#00a19d" filter="url(#bbburst-blur-2)"></use><use xlink:href="#bbburst-shape-8" width="38.60627620024419" opacity="0.3914763179177272" transform="matrix(0.9630598042505254,0.2692876035708656,-0.2692876035708656,0.9630598042505254,481.97395646113966,-264.16428686152693)" fill="none" stroke="#2c2891" filter="url(#bbburst-blur-2)"></use><use xlink:href="#bbburst-shape-1" width="29.949099475563145" opacity="0.14866810688475518" transform="matrix(1.0392592134885443,-0.6945792159136149,0.6945792159136149,1.0392592134885443,-19.099898492189766,356.61647088699374)" fill="#63b4d1" filter="url(#bbburst-blur-3)"></use><use xlink:href="#bbburst-shape-10" width="21.894892276726612" opacity="0.7014072692948146" transform="matrix(0.757210146038404,0.6531713364321026,-0.6531713364321026,0.757210146038404,673.0736166915435,222.82104814398082)" fill="none" stroke="#00a19d" filter="url(#bbburst-blur-1)"></use><use xlink:href="#bbburst-shape-5" width="47.1151096106058" opacity="0.17722683308589604" transform="matrix(1.2437634715781591,-0.12470936920634962,0.12470936920634962,1.2437634715781591,60.73430240446943,-358.0839893759904)" fill="#00a19d" filter="url(#bbburst-blur-3)"></use><use xlink:href="#bbburst-shape-10" width="28.68089607323266" opacity="0.6646497750762981" transform="matrix(0.7589133585742236,0.6511916109545576,-0.6511916109545576,0.7589133585742236,621.1465479610056,-61.10585884461486)" fill="none" stroke="#63b4d1" filter="url(#bbburst-blur-1)"></use><use xlink:href="#bbburst-shape-8" width="56.847423554258846" opacity="0.10790707803428956" transform="matrix(1.4076287430216394,1.039750605587378,-1.039750605587378,1.4076287430216394,1115.5776772209217,-406.5395298209152)" fill="none" stroke="#00a19d" filter="url(#bbburst-blur-4)"></use><use xlink:href="#bbburst-shape-10" width="28.37926889375619" opacity="0.5291016531942772" transform="matrix(0.9986836761668791,0.051292445426280926,-0.051292445426280926,0.9986836761668791,218.7258347726915,98.2978404386987)" fill="none" stroke="#ffbd9b" filter="url(#bbburst-blur-2)"></use><use xlink:href="#bbburst-shape-10" width="28.324950833369616" opacity="0.18062765236875178" transform="matrix(1.2383182349858488,-0.1704932517771068,0.1704932517771068,1.2383182349858488,-45.69222132749049,-172.8088817045426)" fill="none" stroke="#63b4d1" filter="url(#bbburst-blur-3)"></use><use xlink:href="#bbburst-shape-8" width="16.363594517944684" opacity="0.771882463385873" transform="matrix(0.9992040850121761,0.03988980439886937,-0.03988980439886937,0.9992040850121761,503.1665378165238,37.92806049311662)" fill="none" stroke="#63b4d1" filter="url(#bbburst-blur-1)"></use><use xlink:href="#bbburst-shape-13" width="29.403741216498872" opacity="0.5591415533600856" transform="matrix(0.8634813368505735,0.5043807895932858,-0.5043807895932858,0.8634813368505735,740.7136440225482,175.0887506485896)" fill="none" stroke="#63b4d1" filter="url(#bbburst-blur-1)"></use><use xlink:href="#bbburst-shape-5" width="36.59218721071499" opacity="0.2883803747427274" transform="matrix(1.0204313428540626,0.7219555904077859,-0.7219555904077859,1.0204313428540626,615.2452783147894,294.1119194817603)" fill="#00a19d" filter="url(#bbburst-blur-3)"></use><use xlink:href="#bbburst-shape-13" width="38.78240996279711" opacity="0.202663554656196" transform="matrix(1.1403998455872235,0.511847821314731,-0.511847821314731,1.1403998455872235,228.25757892670197,-9.85458601302713)" fill="none" stroke="#2c2891" filter="url(#bbburst-blur-3)"></use><use xlink:href="#bbburst-shape-10" width="28.9471069990853" opacity="0.5022497813034528" transform="matrix(0.7179531316075621,0.6960914457274235,-0.6960914457274235,0.7179531316075621,507.45370320007294,-53.39969585005514)" fill="none" stroke="#ffbd9b" filter="url(#bbburst-blur-2)"></use><use xlink:href="#bbburst-shape-8" width="47.91824283406286" opacity="0.27406459276007455" transform="matrix(1.0883077302593311,-0.6148872126315384,0.6148872126315384,1.0883077302593311,-44.64287279320257,256.75113878503157)" fill="none" stroke="#63b4d1" filter="url(#bbburst-blur-3)"></use><use xlink:href="#bbburst-shape-10" width="46.268601896555126" opacity="0.3291132703929116" transform="matrix(1.035750314142407,-0.6998008907924493,0.6998008907924493,1.035750314142407,-178.79179257218334,126.65895353297174)" fill="none" stroke="#2c2891" filter="url(#bbburst-blur-3)"></use><use xlink:href="#bbburst-shape-8" width="31.082371845635706" opacity="0.6497361763309818" transform="matrix(0.9061288137797664,0.4230018591425733,-0.4230018591425733,0.9061288137797664,467.4752455977414,-100.03057672980384)" fill="none" stroke="#63b4d1" filter="url(#bbburst-blur-1)"></use><use xlink:href="#bbburst-shape-1" width="20.81059839711603" opacity="0.8669874325166194" transform="matrix(0.9730895098928403,-0.23042744137040608,0.23042744137040608,0.9730895098928403,357.51537791661417,15.638755478892449)" fill="#00a19d"></use><use xlink:href="#bbburst-shape-5" width="40.50091125631867" opacity="0.3514744031785826" transform="matrix(0.9299182321457897,-0.3677663409324584,0.3677663409324584,0.9299182321457897,64.99076100453706,-202.39251938552766)" fill="#a7a5c6" filter="url(#bbburst-blur-2)"></use><use xlink:href="#bbburst-shape-10" width="30.444125414759206" opacity="0.20100122668691445" transform="matrix(1.2221058964047171,-0.26259698774514284,0.26259698774514284,1.2221058964047171,504.7185690082458,-362.5632102481154)" fill="none" stroke="#2c2891" filter="url(#bbburst-blur-3)"></use><use xlink:href="#bbburst-shape-10" width="29.394378403584966" opacity="0.455067693465505" transform="matrix(0.9835039381594747,-0.18088671489306263,0.18088671489306263,0.9835039381594747,416.14111904180663,-213.3049503612736)" fill="none" stroke="#ffbd9b" filter="url(#bbburst-blur-2)"></use><use xlink:href="#bbburst-shape-8" width="38.30239710346235" opacity="-0.07325281235341863" transform="matrix(1.7263188175292643,-0.2869204423605315,0.2869204423605315,1.7263188175292643,-98.16401956578457,47.41215303164984)" fill="none" stroke="#63b4d1" filter="url(#bbburst-blur-4)"></use><use xlink:href="#bbburst-shape-10" width="17.488008504434987" opacity="0.8501408285681917" transform="matrix(0.9022590606253589,0.43119437324650356,-0.43119437324650356,0.9022590606253589,511.0689115169,76.35482833251308)" fill="none" stroke="#ffbd9b"></use><use xlink:href="#bbburst-shape-8" width="47.490241825260895" opacity="0.33532511052646163" transform="matrix(0.99364800122213,-0.11253288260444534,0.11253288260444534,0.99364800122213,72.3699508851982,-144.35416747349296)" fill="none" stroke="#2c2891" filter="url(#bbburst-blur-2)"></use><use xlink:href="#bbburst-shape-13" width="25.927270723519314" opacity="0.6065001732992361" transform="matrix(0.9325609687222948,0.36101252002629375,-0.36101252002629375,0.9325609687222948,608.9021057917946,181.95158112058368)" fill="none" stroke="#ffbd9b" filter="url(#bbburst-blur-1)"></use><use xlink:href="#bbburst-shape-8" width="23.59855387789077" opacity="0.612413065374145" transform="matrix(0.9441278098079992,0.3295795484358071,-0.3295795484358071,0.9441278098079992,600.7695937591841,-136.4845149025517)" fill="none" stroke="#a7a5c6" filter="url(#bbburst-blur-1)"></use><use xlink:href="#bbburst-shape-5" width="36.92988160113921" opacity="0.5092772101531716" transform="matrix(0.995404612721657,-0.09575832586489799,0.09575832586489799,0.995404612721657,131.70110645059106,-59.50218191597014)" fill="#2c2891" filter="url(#bbburst-blur-2)"></use><use xlink:href="#bbburst-shape-13" width="37.637465643883765" opacity="0.16862888295291878" transform="matrix(1.1644194140849122,0.45456289785039633,-0.45456289785039633,1.1644194140849122,921.3101190828149,-171.0439807580878)" fill="none" stroke="#00a19d" filter="url(#bbburst-blur-3)"></use><use xlink:href="#bbburst-shape-5" width="37.52466038280677" opacity="0.291804969819083" transform="matrix(1.2330044110466714,0.2054266836110906,-0.2054266836110906,1.2330044110466714,624.4372880379549,175.34900926348212)" fill="#a7a5c6" filter="url(#bbburst-blur-3)"></use><use xlink:href="#bbburst-shape-5" width="28.881379183406672" opacity="0.3650770497132545" transform="matrix(0.85501120474202,0.5186095253324987,-0.5186095253324987,0.85501120474202,787.2907461231263,-160.9048887784733)" fill="#63b4d1" filter="url(#bbburst-blur-2)"></use><use xlink:href="#bbburst-shape-10" width="38.52305055295433" opacity="0.41663215329983005" transform="matrix(0.7471180221430315,0.6646914028247128,-0.6646914028247128,0.7471180221430315,464.253959457555,272.35689103029426)" fill="none" stroke="#2c2891" filter="url(#bbburst-blur-2)"></use><use xlink:href="#bbburst-shape-8" width="41.244384718919164" opacity="0.088532174143096" transform="matrix(1.703041061812477,-0.4026799495637088,0.4026799495637088,1.703041061812477,-0.990889193895498,-628.2842265419704)" fill="none" stroke="#2c2891" filter="url(#bbburst-blur-4)"></use><use xlink:href="#bbburst-shape-10" width="16.882144972468083" opacity="0.7991542047797394" transform="matrix(0.7294325679963478,-0.6840527236596996,0.6840527236596996,0.7294325679963478,102.96421371397003,25.283396978517715)" fill="none" stroke="#a7a5c6"></use><use xlink:href="#bbburst-shape-13" width="32.31976576129308" opacity="0.19101188621995502" transform="matrix(1.2378450528363214,0.17389544320839553,-0.17389544320839553,1.2378450528363214,461.2268333068076,265.90933504179196)" fill="none" stroke="#63b4d1" filter="url(#bbburst-blur-3)"></use><use xlink:href="#bbburst-shape-5" width="17.729059679457777" opacity="0.8003906619786001" transform="matrix(0.7244430268970611,-0.689334679803812,0.689334679803812,0.7244430268970611,193.76320429980376,68.32607964042143)" fill="#00a19d"></use><use xlink:href="#bbburst-shape-10" width="23.334881386279733" opacity="0.7202502132696927" transform="matrix(0.7253446806484698,-0.6883858614577796,0.6883858614577796,0.7253446806484698,6.5623553917341155,179.78897388521813)" fill="none" stroke="#00a19d" filter="url(#bbburst-blur-1)"></use><use xlink:href="#bbburst-shape-13" width="36.77632219821139" opacity="0.02646476908686557" transform="matrix(1.7193782985348585,-0.32594212143780216,0.32594212143780216,1.7193782985348585,488.2306843267337,-641.357194520386)" fill="none" stroke="#2c2891" filter="url(#bbburst-blur-4)"></use><use xlink:href="#bbburst-shape-13" width="32.36467755128325" opacity="0.5545604705711235" transform="matrix(0.7819356115671126,-0.6233592057258525,0.6233592057258525,0.7819356115671126,132.70422337247794,297.69091116025663)" fill="none" stroke="#63b4d1" filter="url(#bbburst-blur-2)"></use><use xlink:href="#bbburst-shape-5" width="32.067241167681566" opacity="0.5275417791841108" transform="matrix(0.721816618107282,0.692084366117431,-0.692084366117431,0.721816618107282,827.2162180887595,-37.56108383389187)" fill="#00a19d" filter="url(#bbburst-blur-2)"></use><use xlink:href="#bbburst-shape-5" width="21.768088440703814" opacity="0.7744669097750161" transform="matrix(0.9818826098876247,-0.18949021188511728,0.18949021188511728,0.9818826098876247,263.0718173769779,97.37453897407289)" fill="#ffbd9b" filter="url(#bbburst-blur-1)"></use><use xlink:href="#bbburst-shape-5" width="15.595493578941488" opacity="0.8088774730955838" transform="matrix(0.99692802315341,0.07832315526990742,-0.07832315526990742,0.99692802315341,434.7432525973419,85.89242551053962)" fill="#00a19d"></use><use xlink:href="#bbburst-shape-10" width="18.716697741757446" opacity="0.9430211298495084" transform="matrix(0.9452306487979869,0.32640315649965274,-0.32640315649965274,0.9452306487979869,496.620664770306,24.114839970447576)" fill="none" stroke="#63b4d1"></use><use xlink:href="#bbburst-shape-8" width="21.773913100735314" opacity="0.7010005051071891" transform="matrix(0.9830158693034488,0.18352057295460103,-0.18352057295460103,0.9830158693034488,556.9116904439395,-91.27180113855451)" fill="none" stroke="#00a19d" filter="url(#bbburst-blur-1)"></use><use xlink:href="#bbburst-shape-5" width="32.697785854584794" opacity="0.6346013863580652" transform="matrix(0.8463793912694606,-0.5325804409047871,0.5325804409047871,0.8463793912694606,337.5216584179681,73.69797901837279)" fill="#ffbd9b" filter="url(#bbburst-blur-1)"></use><use xlink:href="#bbburst-shape-1" width="16.624967747467593" opacity="0.8930200510345285" transform="matrix(0.9221630632924017,-0.3868013504360784,0.3868013504360784,0.9221630632924017,229.38435363079967,81.8006967252478)" fill="#00a19d"></use><use xlink:href="#bbburst-shape-5" width="24.572172188543725" opacity="0.6265388014687259" transform="matrix(0.9891068955789913,-0.1471990119467192,0.1471990119467192,0.9891068955789913,211.29330431965684,126.14893129900878)" fill="#a7a5c6" filter="url(#bbburst-blur-1)"></use><use xlink:href="#bbburst-shape-1" width="17.305352450464834" opacity="0.8634072731812517" transform="matrix(0.8377538054031615,0.5460481311501045,-0.5460481311501045,0.8377538054031615,553.8318214713128,38.014973107298374)" fill="#a7a5c6"></use><use xlink:href="#bbburst-shape-8" width="33.06480456074476" opacity="0.31944100965059985" transform="matrix(1.0358649557999193,0.6996311838001729,-0.6996311838001729,1.0358649557999193,932.7798162651284,118.5227449123235)" fill="none" stroke="#a7a5c6" filter="url(#bbburst-blur-3)"></use><use xlink:href="#bbburst-shape-13" width="29.58842298032829" opacity="0.30879070575663436" transform="matrix(0.9849988702810969,-0.769595494753551,0.769595494753551,0.9849988702810969,162.14821280792478,-281.9437478395246)" fill="none" stroke="#2c2891" filter="url(#bbburst-blur-3)"></use><use xlink:href="#bbburst-shape-10" width="34.00857353158398" opacity="0.19391928214703513" transform="matrix(1.051657226858406,-0.6756604747922492,0.6756604747922492,1.051657226858406,99.68727145866313,-371.7060323611314)" fill="none" stroke="#63b4d1" filter="url(#bbburst-blur-3)"></use><use xlink:href="#bbburst-shape-5" width="38.27811582616099" opacity="0.44578394663630183" transform="matrix(0.9163630839641317,0.40034822136203596,-0.40034822136203596,0.9163630839641317,295.1516843343999,56.902504257036014)" fill="#2c2891" filter="url(#bbburst-blur-2)"></use><use xlink:href="#bbburst-shape-5" width="33.288625418855446" opacity="0.30434388389208167" transform="matrix(1.2331979410991731,0.20426169016426027,-0.20426169016426027,1.2331979410991731,772.4851738568714,-129.62987101082365)" fill="#00a19d" filter="url(#bbburst-blur-3)"></use><use xlink:href="#bbburst-shape-1" width="22.253148754471216" opacity="0.723013057298828" transform="matrix(0.9800309604363632,0.1988449561497087,-0.1988449561497087,0.9800309604363632,547.9694733502761,101.93375466506575)" fill="#a7a5c6" filter="url(#bbburst-blur-1)"></use><use xlink:href="#bbburst-shape-5" width="21.22396741875375" opacity="0.7532785179045997" transform="matrix(0.9859099594697538,0.1672768717376925,-0.1672768717376925,0.9859099594697538,566.2933649054271,-12.280279966713067)" fill="#ffbd9b" filter="url(#bbburst-blur-1)"></use><use xlink:href="#bbburst-shape-8" width="32.324495447635854" opacity="0.5565288322971589" transform="matrix(0.9971627101262018,0.07527635441337709,-0.07527635441337709,0.9971627101262018,430.962351854909,-198.92104139474333)" fill="none" stroke="#ffbd9b" filter="url(#bbburst-blur-1)"></use><use xlink:href="#bbburst-shape-10" width="43.63050330794203" opacity="0.0499983762005517" transform="matrix(1.4155738948298433,1.0289074536984693,-1.0289074536984693,1.4155738948298433,537.6222303239535,163.00461800129358)" fill="none" stroke="#2c2891" filter="url(#bbburst-blur-4)"></use><use xlink:href="#bbburst-shape-5" width="27.923849392001205" opacity="0.45556236213132983" transform="matrix(0.9842582484862152,0.1767362449721276,-0.1767362449721276,0.9842582484862152,549.5099876193958,230.6695469098476)" fill="#00a19d" filter="url(#bbburst-blur-2)"></use><use xlink:href="#bbburst-shape-10" width="32.101393369643716" opacity="0.14878624027314968" transform="matrix(0.9467232139901004,0.8162200414669164,-0.8162200414669164,0.9467232139901004,841.9858056725388,-351.8507809870879)" fill="none" stroke="#a7a5c6" filter="url(#bbburst-blur-3)"></use><use xlink:href="#bbburst-shape-5" width="32.42979548033153" opacity="0.3461003318880017" transform="matrix(0.7615068646528886,0.6481568445110545,-0.6481568445110545,0.7615068646528886,355.3522978013736,45.17451089671505)" fill="#a7a5c6" filter="url(#bbburst-blur-2)"></use><use xlink:href="#bbburst-shape-1" width="21.094204754463078" opacity="0.7846759671254511" transform="matrix(0.9572535460076984,-0.28925014892941225,0.28925014892941225,0.9572535460076984,213.94080017310318,-55.69451342159863)" fill="#2c2891"></use><use xlink:href="#bbburst-shape-8" width="37.69367607342033" opacity="0.3617927339733864" transform="matrix(0.764390202433159,-0.6447539208288648,0.6447539208288648,0.764390202433159,410.4082177310468,156.90852975439952)" fill="none" stroke="#ffbd9b" filter="url(#bbburst-blur-2)"></use><use xlink:href="#bbburst-shape-8" width="44.57906912114785" opacity="0.2402041698890912" transform="matrix(1.237855358812327,-0.17382206608945133,0.17382206608945133,1.237855358812327,196.5420566834701,-416.2191168921281)" fill="none" stroke="#a7a5c6" filter="url(#bbburst-blur-3)"></use><use xlink:href="#bbburst-shape-10" width="23.215553804911867" opacity="0.6542833482683927" transform="matrix(0.9799106576341307,-0.19943696511691503,0.19943696511691503,0.9799106576341307,449.88964405850993,76.00743751283477)" fill="none" stroke="#00a19d" filter="url(#bbburst-blur-1)"></use><use xlink:href="#bbburst-shape-5" width="36.694069473468424" opacity="0.06718401205546931" transform="matrix(1.4626657160413752,0.9607856176677348,-0.9607856176677348,1.4626657160413752,981.2372609488941,152.46329417385402)" fill="#a7a5c6" filter="url(#bbburst-blur-4)"></use><use xlink:href="#bbburst-shape-8" width="53.91142744560729" opacity="0.1918370452610595" transform="matrix(0.9231355190597461,-0.8428053235773332,0.8428053235773332,0.9231355190597461,-234.59254099771894,294.20227953752044)" fill="none" stroke="#2c2891" filter="url(#bbburst-blur-3)"></use><use xlink:href="#bbburst-shape-13" width="21.393447874390624" opacity="0.8327732577877858" transform="matrix(0.8052114007936321,-0.5929878582500293,0.5929878582500293,0.8052114007936321,185.93681574055563,16.030040293715956)" fill="none" stroke="#2c2891"></use><use xlink:href="#bbburst-shape-5" width="39.64677466509335" opacity="0.3892216118032912" transform="matrix(0.9792525551372515,0.20264361143930548,-0.20264361143930548,0.9792525551372515,487.46910581175007,277.916349774825)" fill="#00a19d" filter="url(#bbburst-blur-2)"></use><use xlink:href="#bbburst-shape-8" width="51.452826660938555" opacity="0.09342072576875338" transform="matrix(1.343219632002275,1.1217223454151537,-1.1217223454151537,1.343219632002275,461.80470357006436,-371.80780294943276)" fill="none" stroke="#2c2891" filter="url(#bbburst-blur-4)"></use><use xlink:href="#bbburst-shape-5" width="23.211660884154394" opacity="0.6790096705369333" transform="matrix(0.7322000058902328,-0.6810896793920336,0.6810896793920336,0.7322000058902328,78.36928643121837,253.61860286320734)" fill="#ffbd9b" filter="url(#bbburst-blur-1)"></use><use xlink:href="#bbburst-shape-10" width="49.08446173971835" opacity="0.09922436949216551" transform="matrix(1.6355381524687391,0.6225069893737285,-0.6225069893737285,1.6355381524687391,251.14706070123555,-78.84377208781655)" fill="none" stroke="#2c2891" filter="url(#bbburst-blur-4)"></use><use xlink:href="#bbburst-shape-8" width="21.260113805999936" opacity="0.7501081362261313" transform="matrix(0.8283816469696539,0.5601641250239466,-0.5601641250239466,0.8283816469696539,515.5299789109733,10.738503379947531)" fill="none" stroke="#63b4d1" filter="url(#bbburst-blur-1)"></use><use xlink:href="#bbburst-shape-1" width="26.329474276839914" opacity="0.42721741413796077" transform="matrix(0.9091018637007995,0.41657388470202134,-0.41657388470202134,0.9091018637007995,466.8498619375512,273.24416072273004)" fill="#63b4d1" filter="url(#bbburst-blur-2)"></use><use xlink:href="#bbburst-shape-13" width="30.799374867363817" opacity="0.4909797799207932" transform="matrix(0.7874682674587662,-0.6163551960886589,0.6163551960886589,0.7874682674587662,64.30414653717224,-121.21514787305739)" fill="none" stroke="#ffbd9b" filter="url(#bbburst-blur-2)"></use><use xlink:href="#bbburst-shape-5" width="22.151091410128053" opacity="0.6193156249564552" transform="matrix(0.9999695255706187,0.0078069155286733275,-0.0078069155286733275,0.9999695255706187,223.0133938444425,27.74425157352988)" fill="#ffbd9b" filter="url(#bbburst-blur-1)"></use><use xlink:href="#bbburst-shape-13" width="39.411610012836384" opacity="0.17787290412313372" transform="matrix(0.9932065686930687,-0.7589734592888876,0.7589734592888876,0.9932065686930687,344.4779063065377,273.09001941265035)" fill="none" stroke="#ffbd9b" filter="url(#bbburst-blur-3)"></use><use xlink:href="#bbburst-shape-5" width="23.03723938269343" opacity="0.5531479423269805" transform="matrix(0.9617808544790534,-0.2738203570911811,0.2738203570911811,0.9617808544790534,183.72038001996975,195.30662268302314)" fill="#ffbd9b" filter="url(#bbburst-blur-2)"></use><use xlink:href="#bbburst-shape-1" width="34.8985696035424" opacity="0.09047814087576778" transform="matrix(1.4686981611438332,0.9515386021873851,-0.9515386021873851,1.4686981611438332,1111.4518257255054,-2.977333329294879)" fill="#2c2891" filter="url(#bbburst-blur-4)"></use><use xlink:href="#bbburst-shape-5" width="43.92204527075093" opacity="0.34635885740803907" transform="matrix(0.9996309214160545,0.02716654098132357,-0.02716654098132357,0.9996309214160545,648.7192389846219,-138.35672030813242)" fill="#a7a5c6" filter="url(#bbburst-blur-2)"></use><use xlink:href="#bbburst-shape-10" width="25.92390182705056" opacity="0.62300164357724" transform="matrix(0.9986015826083929,-0.05286661717958753,0.05286661717958753,0.9986015826083929,521.2563451289759,-66.93337864943078)" fill="none" stroke="#63b4d1" filter="url(#bbburst-blur-1)"></use><use xlink:href="#bbburst-shape-10" width="22.850070129975713" opacity="0.7260111284495658" transform="matrix(0.8570975067637827,0.5151542137062527,-0.5151542137062527,0.8570975067637827,625.1298512591987,-68.59425790229164)" fill="none" stroke="#2c2891" filter="url(#bbburst-blur-1)"></use><use xlink:href="#bbburst-shape-1" width="22.22627029519843" opacity="0.7918507637129346" transform="matrix(0.9537171029639039,-0.300705316737397,0.300705316737397,0.9537171029639039,176.0241851563247,32.14247003071188)" fill="#ffbd9b"></use></svg>