<svg xmlns="http://www.w3.org/2000/svg" version="1.1" xmlns:xlink="http://www.w3.org/1999/xlink" xmlns:svgjs="http://svgjs.dev/svgjs" viewBox="0 0 800 800" opacity="0.71"><defs><filter id="bbburst-blur-1" x="-100%" y="-100%" width="400%" height="400%"><feGaussianBlur in="SourceGraphic" stdDeviation="1"></feGaussianBlur></filter><filter id="bbburst-blur-2" x="-100%" y="-100%" width="400%" height="400%"><feGaussianBlur in="SourceGraphic" stdDeviation="2"></feGaussianBlur></filter><filter id="bbburst-blur-3" x="-100%" y="-100%" width="400%" height="400%"><feGaussianBlur in="SourceGraphic" stdDeviation="4"></feGaussianBlur></filter><filter id="bbburst-blur-4" x="-100%" y="-100%" width="400%" height="400%"><feGaussianBlur in="SourceGraphic" stdDeviation="12"></feGaussianBlur></filter><symbol id="bbburst-shape-1" viewBox="0 0 194 167"><path d="m97 0 96.129 166.5H.871L97 0Z"></path></symbol><symbol id="bbburst-shape-8" viewBox="0 0 87 168"><path d="m12 12 31.2546 18.0749c16.4102 9.4902 20.014 31.6325 7.4603 45.8369L36.3296 92.1884c-12.5684 14.2206-8.9394 36.3916 7.5068 45.8636L75 156" stroke-width="14" stroke-linecap="round" stroke-linejoin="round"></path></symbol><symbol id="bbburst-shape-10" viewBox="0 0 145 145"><circle cx="72.5" cy="72.5" r="61.5" fill="none" stroke-width="22"></circle></symbol></defs><use xlink:href="#bbburst-shape-8" width="33.09425136071367" opacity="0.6070855379893814" transform="matrix(0.8630049087785651,0.5051955338520924,-0.5051955338520924,0.8630049087785651,461.59248497504484,164.62589470640137)" fill="none" stroke="#2c2891" filter="url(#bbburst-blur-1)"></use><use xlink:href="#bbburst-shape-10" width="26.307975221942538" opacity="0.6775269144071656" transform="matrix(0.9938319645516724,0.11089646628889141,-0.11089646628889141,0.9938319645516724,289.10842255871194,207.31710141270042)" fill="none" stroke="#2c2891"></use><use xlink:href="#bbburst-shape-10" width="21.247371488310748" opacity="0.7677252343897376" transform="matrix(0.9837215412584785,0.17969955276528507,-0.17969955276528507,0.9837215412584785,92.00070759905658,174.34823080707326)" fill="none" stroke="#ffbd9b"></use><use xlink:href="#bbburst-shape-10" width="28.85903706740102" opacity="0.7123329356443231" transform="matrix(0.7938176818948881,-0.608155808910041,0.608155808910041,0.7938176818948881,-217.9134716906077,205.94520988338172)" fill="none" stroke="#2c2891"></use><use xlink:href="#bbburst-shape-8" width="15.629374716129405" opacity="0.9179257184713641" transform="matrix(0.9965804164943488,-0.08262852691383461,0.08262852691383461,0.9965804164943488,13.832921416132777,340.79976251491377)" fill="none" stroke="#2c2891"></use><use xlink:href="#bbburst-shape-10" width="32.328993794563324" opacity="0.5237716164503416" transform="matrix(0.9278069259053445,-0.3730607299650748,0.3730607299650748,0.9278069259053445,307.9885367687396,373.1755273804336)" fill="none" stroke="#ffbd9b" filter="url(#bbburst-blur-1)"></use><use xlink:href="#bbburst-shape-10" width="27.104962016007434" opacity="0.5958103996087905" transform="matrix(0.8259547563190579,0.5637364104915751,-0.5637364104915751,0.8259547563190579,616.2644347433487,419.6166274595708)" fill="none" stroke="#ffbd9b" filter="url(#bbburst-blur-1)"></use><use xlink:href="#bbburst-shape-10" width="28.787310126879866" opacity="0.6140816503123134" transform="matrix(0.8847045848837306,0.466152118396673,-0.466152118396673,0.8847045848837306,540.2113854089089,318.4872070258434)" fill="none" stroke="#95b8d1" filter="url(#bbburst-blur-1)"></use><use xlink:href="#bbburst-shape-1" width="61.31206549113162" opacity="0.19308132999402583" transform="matrix(0.9867228967345391,-0.1624128229537318,0.1624128229537318,0.9867228967345391,254.42406588495527,-316.8735186543247)" fill="#2c2891" filter="url(#bbburst-blur-3)"></use><use xlink:href="#bbburst-shape-10" width="74.39591529244636" opacity="0.11330183868263743" transform="matrix(0.9974030839690099,-0.0720214418705165,0.0720214418705165,0.9974030839690099,645.6080773065652,-125.40952018890647)" fill="none" stroke="#95b8d1" filter="url(#bbburst-blur-3)"></use><use xlink:href="#bbburst-shape-8" width="21.664161392456812" opacity="0.8379773957090946" transform="matrix(0.8945230085825429,-0.4470219089892976,0.4470219089892976,0.8945230085825429,-116.59595471346071,301.838704671347)" fill="none" stroke="#ffbd9b"></use><use xlink:href="#bbburst-shape-1" width="22.280658935313532" opacity="0.745139191016242" transform="matrix(0.9638004388697187,0.26662466884093394,-0.26662466884093394,0.9638004388697187,338.1930200790614,332.4763340970831)" fill="#95b8d1"></use><use xlink:href="#bbburst-shape-8" width="42.239533479060015" opacity="0.34883339395204405" transform="matrix(0.9469894340010403,-0.32126470688575387,0.32126470688575387,0.9469894340010403,-89.67143750365989,-220.51396351061769)" fill="none" stroke="#ffbd9b" filter="url(#bbburst-blur-2)"></use><use xlink:href="#bbburst-shape-10" width="17.428753581457684" opacity="0.8562613172013344" transform="matrix(0.9548900718679928,-0.29695951011533467,0.29695951011533467,0.9548900718679928,-5.9332539223041465,343.3129836377632)" fill="none" stroke="#ffbd9b"></use><use xlink:href="#bbburst-shape-1" width="11.918044217915991" opacity="0.923966498666429" transform="matrix(0.9437729613519554,-0.3305943094201114,0.3305943094201114,0.9437729613519554,-63.912310906518044,406.77409220440325)" fill="#ffbd9b"></use><use xlink:href="#bbburst-shape-10" width="51.013690804069746" opacity="0.10274943993686103" transform="matrix(0.9550607957831085,0.2964099801932038,-0.2964099801932038,0.9550607957831085,615.6648689932431,-319.746775133895)" fill="none" stroke="#95b8d1" filter="url(#bbburst-blur-3)"></use><use xlink:href="#bbburst-shape-1" width="55.33981733200122" opacity="0.1808453779438305" transform="matrix(0.738197935171529,-0.6745841745167841,0.6745841745167841,0.738197935171529,446.5700092386966,165.43440960295897)" fill="#95b8d1" filter="url(#bbburst-blur-3)"></use><use xlink:href="#bbburst-shape-10" width="40.565346902895705" opacity="0.4644962352677835" transform="matrix(0.8233423240721375,-0.5675450796117357,0.5675450796117357,0.8233423240721375,-191.06702716319978,-50.734769107377815)" fill="none" stroke="#95b8d1" filter="url(#bbburst-blur-1)"></use><use xlink:href="#bbburst-shape-10" width="8.07367226527381" opacity="0.962798659636086" transform="matrix(0.9218739643694935,-0.38748986285795106,0.38748986285795106,0.9218739643694935,-143.50135319797945,398.8674580120509)" fill="none" stroke="#2c2891"></use><use xlink:href="#bbburst-shape-10" width="17.335817776510478" opacity="0.7736456354713536" transform="matrix(0.9807673687993039,-0.19518034813600016,0.19518034813600016,0.9807673687993039,138.50215041054867,385.35733774378565)" fill="none" stroke="#95b8d1"></use><use xlink:href="#bbburst-shape-10" width="26.7062548294125" opacity="0.6650045133265061" transform="matrix(0.9413751425375048,-0.33736158793272925,0.33736158793272925,0.9413751425375048,185.06977694878915,387.83767907488027)" fill="none" stroke="#95b8d1"></use><use xlink:href="#bbburst-shape-8" width="47.816900651179964" opacity="0.5146295200189015" transform="matrix(0.8806779177024041,-0.4737155320140532,0.4737155320140532,0.8806779177024041,242.13707280888875,283.936710893205)" fill="none" stroke="#ffbd9b" filter="url(#bbburst-blur-1)"></use><use xlink:href="#bbburst-shape-10" width="48.20318550934068" opacity="0.2454230045315865" transform="matrix(0.9797526825025973,-0.20021159089564433,0.20021159089564433,0.9797526825025973,647.4886844188602,341.47749872285715)" fill="none" stroke="#ffbd9b" filter="url(#bbburst-blur-3)"></use><use xlink:href="#bbburst-shape-10" width="40.48501449660415" opacity="0.5769168731921711" transform="matrix(0.988555777524347,0.15085580772126045,-0.15085580772126045,0.988555777524347,202.64638336790932,10.815382386929969)" fill="none" stroke="#ffbd9b" filter="url(#bbburst-blur-1)"></use><use xlink:href="#bbburst-shape-1" width="48.65789347033398" opacity="0.26640001540399694" transform="matrix(0.9996022536305288,0.028201676134016574,-0.028201676134016574,0.9996022536305288,199.7462544634638,-302.5261589086767)" fill="#ffbd9b" filter="url(#bbburst-blur-2)"></use><use xlink:href="#bbburst-shape-10" width="13.440014836515612" opacity="0.8940216451337104" transform="matrix(0.8929064053157294,0.45024232513852186,-0.45024232513852186,0.8929064053157294,265.0477898172752,385.41241201609085)" fill="none" stroke="#ffbd9b"></use><use xlink:href="#bbburst-shape-10" width="9.753344213421952" opacity="0.9390377614665093" transform="matrix(0.9196227605199546,-0.39280272190204873,0.39280272190204873,0.9196227605199546,-142.1775039080122,376.2829479002324)" fill="none" stroke="#ffbd9b"></use><use xlink:href="#bbburst-shape-1" width="25.33650820020845" opacity="0.7887513757990462" transform="matrix(0.8787290096042237,0.477320990194209,-0.477320990194209,0.8787290096042237,253.33759592203154,244.4615159854897)" fill="#ffbd9b"></use><use xlink:href="#bbburst-shape-1" width="21.564962160009863" opacity="0.5767275339313086" transform="matrix(0.9820746900158944,0.18849218347237887,-0.18849218347237887,0.9820746900158944,90.0247741006707,-17.355313193285212)" fill="#2c2891" filter="url(#bbburst-blur-1)"></use><use xlink:href="#bbburst-shape-10" width="49.789362658038556" opacity="0.4994738021423961" transform="matrix(0.8946866074281639,0.4466943860053344,-0.4466943860053344,0.8946866074281639,439.0097801058675,17.89378745305072)" fill="none" stroke="#ffbd9b" filter="url(#bbburst-blur-1)"></use><use xlink:href="#bbburst-shape-1" width="7.640731954757534" opacity="0.9854811885446367" transform="matrix(0.9999674412798655,-0.008069472114009265,0.008069472114009265,0.9999674412798655,1.9097259776184021,388.62758682593744)" fill="#ffbd9b"></use><use xlink:href="#bbburst-shape-8" width="28.853851983656856" opacity="0.6451158768218626" transform="matrix(0.9999964945917807,0.0026477923163827524,-0.0026477923163827524,0.9999964945917807,32.935324607644404,48.11271542634728)" fill="none" stroke="#95b8d1" filter="url(#bbburst-blur-1)"></use><use xlink:href="#bbburst-shape-10" width="8.215920179355393" opacity="0.9672932254259958" transform="matrix(0.8275644244456805,-0.5613707539513344,0.5613707539513344,0.8275644244456805,-196.84774437570923,461.1554378774836)" fill="none" stroke="#95b8d1"></use><use xlink:href="#bbburst-shape-10" width="36.33687104655147" opacity="0.3988484651999584" transform="matrix(0.8037281751483732,-0.5949966558499853,0.5949966558499853,0.8037281751483732,-84.64411204260134,-87.89304298590423)" fill="none" stroke="#ffbd9b" filter="url(#bbburst-blur-2)"></use><use xlink:href="#bbburst-shape-1" width="16.89803172863939" opacity="0.7565337992856179" transform="matrix(0.9050679371319628,-0.4252670092726374,0.4252670092726374,0.9050679371319628,35.02217803244898,323.2380775653107)" fill="#2c2891"></use><use xlink:href="#bbburst-shape-10" width="59.07676357144091" opacity="0.4292741193450772" transform="matrix(0.7556710497569615,-0.6549513451846724,0.6549513451846724,0.7556710497569615,192.80086081711272,203.86691732953386)" fill="none" stroke="#ffbd9b" filter="url(#bbburst-blur-2)"></use><use xlink:href="#bbburst-shape-10" width="43.666980774438706" opacity="0.4732531918716826" transform="matrix(0.9884892461903334,-0.15129114371326077,0.15129114371326077,0.9884892461903334,123.84875281566076,-76.90983348832509)" fill="none" stroke="#ffbd9b" filter="url(#bbburst-blur-1)"></use><use xlink:href="#bbburst-shape-1" width="6.3293675014836825" opacity="0.8726409570441944" transform="matrix(0.781021541646862,0.624504084441054,-0.624504084441054,0.781021541646862,374.41854390811955,477.40442845556055)" fill="#2c2891"></use><use xlink:href="#bbburst-shape-1" width="11.459249704589798" opacity="0.9460420240181033" transform="matrix(0.9076118552420921,-0.4198103383958139,0.4198103383958139,0.9076118552420921,-125.55402498561662,413.89635047954425)" fill="#95b8d1"></use><use xlink:href="#bbburst-shape-1" width="65.36422336544183" opacity="0.0017267376534605416" transform="matrix(0.9975755251243157,0.06959218111933148,-0.06959218111933148,0.9975755251243157,700.7075100837317,-307.5125688640618)" fill="#ffbd9b" filter="url(#bbburst-blur-3)"></use><use xlink:href="#bbburst-shape-10" width="14.390812681551946" opacity="0.9096408491023844" transform="matrix(0.8711196597276221,0.49107080796564545,-0.49107080796564545,0.8711196597276221,205.69845457937802,359.0055326560998)" fill="none" stroke="#ffbd9b"></use><use xlink:href="#bbburst-shape-8" width="46.8486201965678" opacity="0.2418086485612051" transform="matrix(0.8738079295000203,-0.4862712230256769,0.4862712230256769,0.8738079295000203,-127.69756834798973,-291.2836212497783)" fill="none" stroke="#ffbd9b" filter="url(#bbburst-blur-3)"></use><use xlink:href="#bbburst-shape-10" width="45.41756492951384" opacity="0.3115803019874819" transform="matrix(0.9787348287007965,-0.20512955683670364,0.20512955683670364,0.9787348287007965,507.30136314402966,97.10619076664705)" fill="none" stroke="#ffbd9b" filter="url(#bbburst-blur-2)"></use><use xlink:href="#bbburst-shape-8" width="34.48729042164571" opacity="0.5444448133068199" transform="matrix(0.9122882424540728,-0.4095487305316167,0.4095487305316167,0.9122882424540728,-86.64357016670756,-3.833900192739975)" fill="none" stroke="#ffbd9b" filter="url(#bbburst-blur-1)"></use><use xlink:href="#bbburst-shape-8" width="33.755419726898566" opacity="0.6286335815566233" transform="matrix(0.7416172796869506,-0.6708232334003701,0.6708232334003701,0.7416172796869506,-82.54984896603327,200.6820251682268)" fill="none" stroke="#2c2891" filter="url(#bbburst-blur-1)"></use><use xlink:href="#bbburst-shape-10" width="44.210210218278796" opacity="0.5085113187177939" transform="matrix(0.7373691571710906,0.6754899896022112,-0.6754899896022112,0.7373691571710906,616.9270768346711,158.80525382770827)" fill="none" stroke="#2c2891" filter="url(#bbburst-blur-1)"></use><use xlink:href="#bbburst-shape-1" width="21.18267168934664" opacity="0.7757441381201221" transform="matrix(0.9948827827852864,0.10103587737731858,-0.10103587737731858,0.9948827827852864,156.5513845962366,215.95354933461573)" fill="#95b8d1"></use><use xlink:href="#bbburst-shape-1" width="21.666120161476822" opacity="0.7191071245514734" transform="matrix(0.8911179127814894,-0.45377182098491065,0.45377182098491065,0.8911179127814894,87.33888002728912,411.8194610683371)" fill="#ffbd9b"></use><use xlink:href="#bbburst-shape-1" width="14.144765008464462" opacity="0.8875836402114816" transform="matrix(0.9937679603182646,-0.11146856527683502,0.11146856527683502,0.9937679603182646,-4.661513391817159,301.15755484262934)" fill="#2c2891"></use><use xlink:href="#bbburst-shape-1" width="26.05273372015119" opacity="0.8208670462228937" transform="matrix(0.9294406153258888,-0.3689717368344533,0.3689717368344533,0.9294406153258888,-34.53041935943024,304.90004710886575)" fill="#95b8d1"></use><use xlink:href="#bbburst-shape-10" width="17.68955403554085" opacity="0.8667840067245416" transform="matrix(0.8208364625712651,0.5711632881352687,-0.5711632881352687,0.8208364625712651,241.96029300063776,335.02436745204966)" fill="none" stroke="#ffbd9b"></use><use xlink:href="#bbburst-shape-1" width="28.988780495730275" opacity="0.7245663196957823" transform="matrix(0.9031369986508888,0.429352491162989,-0.429352491162989,0.9031369986508888,271.5622117308656,181.33661687109372)" fill="#ffbd9b"></use><use xlink:href="#bbburst-shape-1" width="40.95121264492549" opacity="0.44288353418902526" transform="matrix(0.8005829543043095,0.5992219399165754,-0.5992219399165754,0.8005829543043095,776.9304371426281,405.62811562605276)" fill="#95b8d1" filter="url(#bbburst-blur-2)"></use><use xlink:href="#bbburst-shape-10" width="62.39902991103284" opacity="0.2534788900310151" transform="matrix(0.7659773774108847,0.6428675270183921,-0.6428675270183921,0.7659773774108847,951.4162361102908,269.7641916098521)" fill="none" stroke="#95b8d1" filter="url(#bbburst-blur-2)"></use><use xlink:href="#bbburst-shape-8" width="10.223130061901434" opacity="0.8923377317338743" transform="matrix(0.8328923936779673,-0.5534349650621886,0.5534349650621886,0.8328923936779673,-120.60017213536739,446.0158523964571)" fill="none" stroke="#2c2891"></use><use xlink:href="#bbburst-shape-10" width="44.95072129791281" opacity="0.3483618436935113" transform="matrix(0.9776480546920627,-0.21024814186295582,0.21024814186295582,0.9776480546920627,541.823924788303,343.93217105255644)" fill="none" stroke="#2c2891" filter="url(#bbburst-blur-2)"></use><use xlink:href="#bbburst-shape-10" width="32.23544356950408" opacity="0.6803762468281107" transform="matrix(0.8155025420055076,-0.5787534915510707,0.5787534915510707,0.8155025420055076,47.11844184522056,352.61593480539244)" fill="none" stroke="#95b8d1"></use><use xlink:href="#bbburst-shape-10" width="53.583225284931494" opacity="0.40295893045082787" transform="matrix(0.9562376682740373,-0.29259104869054364,0.29259104869054364,0.9562376682740373,423.003537469496,234.32608521926443)" fill="none" stroke="#95b8d1" filter="url(#bbburst-blur-2)"></use><use xlink:href="#bbburst-shape-1" width="60.600535430308646" opacity="0.2780436629310006" transform="matrix(0.9096611195748527,-0.4153512339380076,0.4153512339380076,0.9096611195748527,372.0110137151655,0.21100022432705146)" fill="#2c2891" filter="url(#bbburst-blur-2)"></use><use xlink:href="#bbburst-shape-10" width="18.991078315372175" opacity="0.8221753513463693" transform="matrix(0.74876784071182,0.6628323473667822,-0.6628323473667822,0.74876784071182,281.7299810836737,317.9616189180533)" fill="none" stroke="#2c2891"></use><use xlink:href="#bbburst-shape-10" width="63.598513208528345" opacity="0.21853548683308543" transform="matrix(0.9997354741237418,0.022999603878703555,-0.022999603878703555,0.9997354741237418,490.2877424005784,-190.23744657832532)" fill="none" stroke="#ffbd9b" filter="url(#bbburst-blur-3)"></use><use xlink:href="#bbburst-shape-10" width="15.92360385585475" opacity="0.8522234432469034" transform="matrix(0.9997047981576681,0.024296430613077374,-0.024296430613077374,0.9997047981576681,146.39934878011974,369.64071301704274)" fill="none" stroke="#2c2891"></use><use xlink:href="#bbburst-shape-10" width="37.34421567938761" opacity="0.5759087912711638" transform="matrix(0.7866006708523057,0.6174620511535123,-0.6174620511535123,0.7866006708523057,593.8612168542095,252.1890459838222)" fill="none" stroke="#2c2891" filter="url(#bbburst-blur-1)"></use><use xlink:href="#bbburst-shape-1" width="51.93255998450221" opacity="0.3848241427022302" transform="matrix(0.9916128354477534,-0.12924389569827577,0.12924389569827577,0.9916128354477534,334.31079205862517,-50.28378782668483)" fill="#ffbd9b" filter="url(#bbburst-blur-2)"></use><use xlink:href="#bbburst-shape-10" width="14.35487562210983" opacity="0.8712446093979657" transform="matrix(0.7548377158615119,-0.6559115967209113,0.6559115967209113,0.7548377158615119,-184.5210943715853,404.56117425526674)" fill="none" stroke="#ffbd9b"></use><use xlink:href="#bbburst-shape-10" width="16.651003518189235" opacity="0.8136283024272305" transform="matrix(0.793841074115452,-0.6081252741394864,0.6081252741394864,0.793841074115452,-66.59832331870894,453.6171078752607)" fill="none" stroke="#ffbd9b"></use><use xlink:href="#bbburst-shape-1" width="16.112358231342444" opacity="0.814675686152899" transform="matrix(0.8186547770464587,-0.5742859531792616,0.5742859531792616,0.8186547770464587,-70.98338725751245,393.4183763841053)" fill="#95b8d1"></use><use xlink:href="#bbburst-shape-10" width="55.617896005265585" opacity="0.33685919630839856" transform="matrix(0.9347938963630058,-0.35519061266096275,0.35519061266096275,0.9347938963630058,161.2580542006241,-139.62458288904543)" fill="none" stroke="#2c2891" filter="url(#bbburst-blur-2)"></use><use xlink:href="#bbburst-shape-10" width="37.202654297915046" opacity="0.6607846771926524" transform="matrix(0.8615538755333169,0.5076661497022645,-0.5076661497022645,0.8615538755333169,298.78563199474877,125.65399389487794)" fill="none" stroke="#95b8d1"></use><use xlink:href="#bbburst-shape-1" width="33.34516951264425" opacity="0.70462257401863" transform="matrix(0.7223117702741341,0.6915675719143044,-0.6915675719143044,0.7223117702741341,451.2205229003379,270.65773345301665)" fill="#ffbd9b"></use><use xlink:href="#bbburst-shape-8" width="24.254413006338957" opacity="0.7610319478870053" transform="matrix(0.7120947554923489,0.7020833705481792,-0.7020833705481792,0.7120947554923489,452.32545042822187,349.6137460890443)" fill="none" stroke="#2c2891"></use></svg>