<svg xmlns="http://www.w3.org/2000/svg" version="1.1" xmlns:xlink="http://www.w3.org/1999/xlink" xmlns:svgjs="http://svgjs.dev/svgjs" viewBox="0 0 800 800"><defs><filter id="bbburst-blur-1" x="-100%" y="-100%" width="400%" height="400%"><feGaussianBlur in="SourceGraphic" stdDeviation="1"></feGaussianBlur></filter><filter id="bbburst-blur-2" x="-100%" y="-100%" width="400%" height="400%"><feGaussianBlur in="SourceGraphic" stdDeviation="2"></feGaussianBlur></filter><filter id="bbburst-blur-3" x="-100%" y="-100%" width="400%" height="400%"><feGaussianBlur in="SourceGraphic" stdDeviation="4"></feGaussianBlur></filter><filter id="bbburst-blur-4" x="-100%" y="-100%" width="400%" height="400%"><feGaussianBlur in="SourceGraphic" stdDeviation="12"></feGaussianBlur></filter><symbol id="bbburst-shape-1" viewBox="0 0 194 167"><path d="m97 0 96.129 166.5H.871L97 0Z"></path></symbol><symbol id="bbburst-shape-8" viewBox="0 0 87 168"><path d="m12 12 31.2546 18.0749c16.4102 9.4902 20.014 31.6325 7.4603 45.8369L36.3296 92.1884c-12.5684 14.2206-8.9394 36.3916 7.5068 45.8636L75 156" stroke-width="14" stroke-linecap="round" stroke-linejoin="round"></path></symbol><symbol id="bbburst-shape-10" viewBox="0 0 145 145"><circle cx="72.5" cy="72.5" r="61.5" fill="none" stroke-width="22"></circle></symbol><symbol id="bbburst-shape-14" viewBox="0 0 185 109"><path d="M168 16.5C168 58.1975 134.197 92 92.5 92 50.8025 92 17 58.1975 17 16.5" stroke-width="33" stroke-linecap="round"></path></symbol></defs><use xlink:href="#bbburst-shape-8" width="0" opacity="0" transform="matrix(0.7978590923621618,-0.6028439837429145,0.6028439837429145,0.7978590923621618,0,0)" fill="none" stroke="#2c2891"></use><use xlink:href="#bbburst-shape-8" width="19.801384701039755" opacity="0.8781764637185336" transform="matrix(0.772870207544717,-0.6345641356788028,0.6345641356788028,0.772870207544717,441.14367486847567,423.9337550796696)" fill="none" stroke="#7e78d2"></use><use xlink:href="#bbburst-shape-8" width="61.4428966448466" opacity="0.44894011240716447" transform="matrix(0.7391950724644337,-0.6734913843875812,0.6734913843875812,0.7391950724644337,47.07275530901575,222.83630005810335)" fill="none" stroke="#19647e" filter="url(#bbburst-blur-2)"></use><use xlink:href="#bbburst-shape-14" width="24.075072407086836" opacity="0.8423599514216462" transform="matrix(0.7172891462567085,-0.6967756315072465,0.6967756315072465,0.7172891462567085,416.2005633189098,396.8256154146116)" fill="none" stroke="#19647e"></use><use xlink:href="#bbburst-shape-14" width="32.277978083456674" opacity="0.6395028166461874" transform="matrix(0.8328971724570577,0.5534277731674099,-0.5534277731674099,0.8328971724570577,943.3490456815073,103.27574868165601)" fill="none" stroke="#2c2891" filter="url(#bbburst-blur-1)"></use><use xlink:href="#bbburst-shape-14" width="48.43113367247648" opacity="0.3891366007692171" transform="matrix(0.9174277716599143,0.3979023545885651,-0.3979023545885651,0.9174277716599143,862.494179589851,-182.85917259068867)" fill="none" stroke="#ffbd9b" filter="url(#bbburst-blur-2)"></use><use xlink:href="#bbburst-shape-1" width="14.450085048995204" opacity="0.9220078171771542" transform="matrix(0.741469174313029,0.6709869324685505,-0.6709869324685505,0.741469174313029,992.3160838233457,465.6690991617773)" fill="#19647e"></use><use xlink:href="#bbburst-shape-10" width="25.11321064385431" opacity="0.8426857766934497" transform="matrix(0.994358217451497,-0.10607419755379421,0.10607419755379421,0.994358217451497,592.127244528237,366.82146652816397)" fill="none" stroke="#2c2891"></use><use xlink:href="#bbburst-shape-1" width="87.4851083811511" opacity="0.15151592693622296" transform="matrix(0.7952928340659519,-0.6062254597782466,0.6062254597782466,0.7952928340659519,-192.2431084995,51.70502850500071)" fill="#7e78d2" filter="url(#bbburst-blur-3)"></use><use xlink:href="#bbburst-shape-10" width="19.584945477435287" opacity="0.791195239066124" transform="matrix(0.7693844122238139,-0.638786056694271,0.638786056694271,0.7693844122238139,504.2408072796393,292.2748596809748)" fill="none" stroke="#00a19d"></use><use xlink:href="#bbburst-shape-10" width="44.492140279238505" opacity="0.5792515696692451" transform="matrix(0.9999807750011666,-0.006200776408341389,0.006200776408341389,0.9999807750011666,578.575081187118,28.20643130527776)" fill="none" stroke="#2c2891" filter="url(#bbburst-blur-1)"></use><use xlink:href="#bbburst-shape-14" width="75.7237019709997" opacity="0.3151175070577624" transform="matrix(0.8951958131626668,-0.4456730372100512,0.4456730372100512,0.8951958131626668,52.21737657813034,32.124161957272634)" fill="none" stroke="#00a19d" filter="url(#bbburst-blur-2)"></use><use xlink:href="#bbburst-shape-1" width="52.901197746959014" opacity="0.1524194587125608" transform="matrix(0.9941245291729465,-0.10824241542328719,0.10824241542328719,0.9941245291729465,298.05298890454344,-323.72903810679844)" fill="#00a19d" filter="url(#bbburst-blur-3)"></use><use xlink:href="#bbburst-shape-10" width="44.25431610955218" opacity="0.6986710193567502" transform="matrix(0.8264922273138439,-0.5629481309941453,0.5629481309941453,0.8264922273138439,424.2852411714291,211.10185196910777)" fill="none" stroke="#2c2891"></use><use xlink:href="#bbburst-shape-10" width="49.67871506946905" opacity="0.43482227047988753" transform="matrix(0.9987298752742142,-0.05038488101357867,0.05038488101357867,0.9987298752742142,195.3003158666701,323.53347776659405)" fill="none" stroke="#00a19d" filter="url(#bbburst-blur-2)"></use><use xlink:href="#bbburst-shape-14" width="18.597254251478287" opacity="0.9256337085727068" transform="matrix(0.965839665211183,0.2591403887948574,-0.2591403887948574,0.965839665211183,863.9929001685574,343.5340665672792)" fill="none" stroke="#7e78d2"></use><use xlink:href="#bbburst-shape-10" width="0" opacity="0" transform="matrix(0.9771641164625793,-0.2124859748263558,0.2124859748263558,0.9771641164625793,0,0)" fill="none" stroke="#00a19d"></use><use xlink:href="#bbburst-shape-10" width="39.84841107917869" opacity="0.6203359353378588" transform="matrix(0.8759952141048678,-0.4823197952244619,0.4823197952244619,0.8759952141048678,229.58655011991283,338.7055178080062)" fill="none" stroke="#19647e" filter="url(#bbburst-blur-1)"></use><use xlink:href="#bbburst-shape-8" width="73.72787224460521" opacity="0.38212108513564313" transform="matrix(0.9472057214482928,0.3206264512725348,-0.3206264512725348,0.9472057214482928,536.6246101398712,-95.21506021361762)" fill="none" stroke="#00a19d" filter="url(#bbburst-blur-2)"></use><use xlink:href="#bbburst-shape-10" width="14.651626220751355" opacity="0.8891782219737634" transform="matrix(0.9577473527217346,-0.2876108627199418,0.2876108627199418,0.9577473527217346,569.0828851252345,398.2298734092921)" fill="none" stroke="#00a19d"></use><use xlink:href="#bbburst-shape-10" width="55.278163190830504" opacity="0.49802143886549954" transform="matrix(0.9814098829888396,0.19192353053190792,-0.19192353053190792,0.9814098829888396,378.2404538324951,229.61757567509875)" fill="none" stroke="#00a19d" filter="url(#bbburst-blur-1)"></use><use xlink:href="#bbburst-shape-14" width="24.137878630840312" opacity="0.7577565190012276" transform="matrix(0.9800638869607537,0.19868260486358377,-0.19868260486358377,0.9800638869607537,709.840636842471,221.8102182684578)" fill="none" stroke="#00a19d"></use><use xlink:href="#bbburst-shape-1" width="21.832051974916222" opacity="0.845841402145626" transform="matrix(0.7561541419268678,-0.6543935464587363,0.6543935464587363,0.7561541419268678,500.0274348430111,353.48754979760747)" fill="#2c2891"></use><use xlink:href="#bbburst-shape-1" width="12.58667639925874" opacity="0.9699057685890157" transform="matrix(0.9987883426279955,0.04921226097652696,-0.04921226097652696,0.9987883426279955,799.9864985088607,373.25076348170876)" fill="#00a19d"></use><use xlink:href="#bbburst-shape-1" width="31.940810272917034" opacity="0.6948737032188574" transform="matrix(0.7926563677662941,0.609668666276647,-0.609668666276647,0.7926563677662941,752.5729801054191,348.8214870126668)" fill="#2c2891"></use><use xlink:href="#bbburst-shape-8" width="0" opacity="0" transform="matrix(0.8077949516876088,-0.5894635832924827,0.5894635832924827,0.8077949516876088,0,0)" fill="none" stroke="#00a19d"></use><use xlink:href="#bbburst-shape-10" width="45.13296821945632" opacity="0.5697127276403879" transform="matrix(0.883205189715301,0.46898677258528204,-0.46898677258528204,0.883205189715301,539.9549042904085,389.10071759346914)" fill="none" stroke="#00a19d" filter="url(#bbburst-blur-1)"></use><use xlink:href="#bbburst-shape-8" width="58.993855807695475" opacity="0.50314928869584" transform="matrix(0.9915873722851396,-0.12943910971824515,0.12943910971824515,0.9915873722851396,381.0252612153105,42.971352709357234)" fill="none" stroke="#19647e" filter="url(#bbburst-blur-1)"></use><use xlink:href="#bbburst-shape-8" width="39.83524972990388" opacity="0.642609487870836" transform="matrix(0.7873301331872217,-0.6165316385842593,0.6165316385842593,0.7873301331872217,300.3447446109703,230.16283184348794)" fill="none" stroke="#7e78d2" filter="url(#bbburst-blur-1)"></use><use xlink:href="#bbburst-shape-8" width="21.589386085514583" opacity="0.7846079376961559" transform="matrix(0.9999128756676917,-0.013200040680516664,0.013200040680516664,0.9999128756676917,569.7301199202007,377.510904810883)" fill="none" stroke="#7e78d2"></use><use xlink:href="#bbburst-shape-8" width="59.34865174218748" opacity="0.2876565985096048" transform="matrix(0.8093854036225041,-0.5872778460003716,0.5872778460003716,0.8093854036225041,274.0368135398453,-166.72539165285366)" fill="none" stroke="#19647e" filter="url(#bbburst-blur-2)"></use><use xlink:href="#bbburst-shape-10" width="31.951943742201628" opacity="0.7252952912917869" transform="matrix(0.9250469433207245,-0.37985280392934356,0.37985280392934356,0.9250469433207245,593.6320951697364,164.22131567413624)" fill="none" stroke="#2c2891"></use><use xlink:href="#bbburst-shape-10" width="13.835748548199806" opacity="0.9536681353974517" transform="matrix(0.9664226334441766,-0.2569577661150226,0.2569577661150226,0.9664226334441766,647.6672952487802,397.621094545349)" fill="none" stroke="#2c2891"></use><use xlink:href="#bbburst-shape-10" width="24.293758390530584" opacity="0.7646024029247915" transform="matrix(0.9143513318915325,0.4049217725291895,-0.4049217725291895,0.9143513318915325,728.643652201063,351.68175247897614)" fill="none" stroke="#ffbd9b"></use><use xlink:href="#bbburst-shape-8" width="77.5103423372997" opacity="0.33414453637657493" transform="matrix(0.9232844826525995,-0.38411686254696187,0.38411686254696187,0.9232844826525995,-0.6869788573179108,181.51417902975408)" fill="none" stroke="#00a19d" filter="url(#bbburst-blur-2)"></use><use xlink:href="#bbburst-shape-10" width="23.842021541513034" opacity="0.7902756101227544" transform="matrix(0.929168072198729,0.36965753557380315,-0.36965753557380315,0.929168072198729,845.3539744211663,235.18172050358396)" fill="none" stroke="#7e78d2"></use><use xlink:href="#bbburst-shape-8" width="65.80506770367529" opacity="0.4643968814371112" transform="matrix(0.7085618687852796,0.705648693121097,-0.705648693121097,0.7085618687852796,864.8851140178427,-5.85283594007916)" fill="none" stroke="#19647e" filter="url(#bbburst-blur-1)"></use><use xlink:href="#bbburst-shape-8" width="45.547074516179144" opacity="0.5883578760137036" transform="matrix(0.7072487673801426,0.7069647664765684,-0.7069647664765684,0.7072487673801426,723.9719020711871,272.9634649325841)" fill="none" stroke="#19647e" filter="url(#bbburst-blur-1)"></use><use xlink:href="#bbburst-shape-8" width="49.858752036767925" opacity="0.2255118093719506" transform="matrix(0.9986424341518033,0.05208923796103448,-0.05208923796103448,0.9986424341518033,56.20112027361782,169.85811450752448)" fill="none" stroke="#19647e" filter="url(#bbburst-blur-3)"></use><use xlink:href="#bbburst-shape-8" width="85.21254321329934" opacity="0.02324337164767154" transform="matrix(0.756657201136867,0.6538118077610123,-0.6538118077610123,0.756657201136867,340.2187215978784,-222.79045724272612)" fill="none" stroke="#2c2891" filter="url(#bbburst-blur-3)"></use><use xlink:href="#bbburst-shape-10" width="38.15011029971735" opacity="0.7119372309719717" transform="matrix(0.9365755581464089,0.35046572426236283,-0.35046572426236283,0.9365755581464089,692.4996556106175,245.01170675054453)" fill="none" stroke="#19647e"></use><use xlink:href="#bbburst-shape-1" width="31.567642380133385" opacity="0.8068013744271016" transform="matrix(0.894264650214318,-0.4475385294888736,0.4475385294888736,0.894264650214318,445.22808675334966,343.6029888666289)" fill="#00a19d"></use><use xlink:href="#bbburst-shape-8" width="50.1368291800217" opacity="0.533478950130725" transform="matrix(0.957158214851295,0.2895654532962835,-0.2895654532962835,0.957158214851295,830.9326432081964,-52.651370311261985)" fill="none" stroke="#2c2891" filter="url(#bbburst-blur-1)"></use><use xlink:href="#bbburst-shape-10" width="14.183560066892484" opacity="0.8880076993393395" transform="matrix(0.9535167753486476,-0.30133993948482285,0.30133993948482285,0.9535167753486476,639.1870329803254,313.87045096257475)" fill="none" stroke="#2c2891"></use><use xlink:href="#bbburst-shape-10" width="60.7805636426484" opacity="0.2884379584173725" transform="matrix(0.8997391290422608,0.43642811512352636,-0.43642811512352636,0.8997391290422608,239.2281276407826,355.72970990541575)" fill="none" stroke="#ffbd9b" filter="url(#bbburst-blur-2)"></use><use xlink:href="#bbburst-shape-8" width="49.99336047468853" opacity="0.2504489325906786" transform="matrix(0.9747851785206939,0.22314536906774243,-0.22314536906774243,0.9747851785206939,747.7428581288787,-335.8317100155803)" fill="none" stroke="#2c2891" filter="url(#bbburst-blur-2)"></use><use xlink:href="#bbburst-shape-10" width="35.47326694574116" opacity="0.690842779523906" transform="matrix(0.9863898521576852,0.16442341548678538,-0.16442341548678538,0.9863898521576852,541.2875524630281,365.95689331534294)" fill="none" stroke="#19647e"></use><use xlink:href="#bbburst-shape-14" width="55.917569487615154" opacity="0.21531659271227488" transform="matrix(0.898939709740818,-0.4380723664545548,0.4380723664545548,0.898939709740818,78.8144237278137,-134.1471701324996)" fill="none" stroke="#19647e" filter="url(#bbburst-blur-3)"></use></svg>