<svg id="Layer_1" data-name="Layer 1" xmlns="http://www.w3.org/2000/svg" width="1000" height="1000" viewBox="0 0 1000 1000"><defs><style>.cls-1{fill:#fff;}.cls-2{fill:#ea2f2f;}.cls-3{fill:#ffc41f;}.cls-4{fill:#389b48;}.cls-5{fill:#a8542a;}.cls-6{fill:#458dc9;}.cls-7{fill:#fc7f3a;}</style></defs><path class="cls-1" d="M444.0806,662.4835a33.7443,33.7443,0,0,1-33.7443,33.7443H58.7443A33.7443,33.7443,0,0,1,25,662.4835V182.1223H444.0806Z"/><path d="M442.2919,662.4835a32.3271,32.3271,0,0,1-26.0594,31.4188,46.0187,46.0187,0,0,1-8.7672.5368H66.8868q-3.6142,0-7.2286,0a31.9709,31.9709,0,0,1-32.87-32.3731c-.0051-1.634,0-3.2682,0-4.9022V182.1223L25,183.9109H437.7455a48.5117,48.5117,0,0,0,5.6393,0,5.982,5.982,0,0,1,.6958,0l-1.7887-1.7886V643.0082c0,6.2173-.1236,12.449,0,18.6654.0054.27,0,.54,0,.81a1.79,1.79,0,0,0,3.5773,0V201.5976c0-6.2173.1236-12.449,0-18.6655-.0054-.27,0-.54,0-.81a1.8146,1.8146,0,0,0-1.7886-1.7886H42.0358c-5.4408,0-10.9-.1317-16.34,0-.2316.0056-.464,0-.6957,0a1.8146,1.8146,0,0,0-1.7886,1.7886V649.89c0,4.1776-.0354,8.357,0,12.5345a35.9816,35.9816,0,0,0,17.1154,30.45,37.1963,37.1963,0,0,0,19.617,5.1419H400.043c8.49,0,16.7787.4641,24.8009-3.0991a35.9131,35.9131,0,0,0,21.0253-32.4338C445.8934,660.1809,442.3162,660.1792,442.2919,662.4835Z"/><path d="M58.7443,119.5442h351.592a33.7443,33.7443,0,0,1,33.7443,33.7443v28.9387H25V153.2885A33.7443,33.7443,0,0,1,58.7443,119.5442Z"/><path d="M58.7443,121.3329H400.627c6.4465,0,13.148-.4717,19.3684,1.4844a32.214,32.214,0,0,1,22.284,29.5914c.1909,7.45.0125,14.9251.0125,22.377v7.4415l1.7887-1.7886H42.0117c-5.3735,0-10.9372-.417-16.2991,0-.2345.0182-.477,0-.7126,0l1.7886,1.7886V158.784a64.154,64.154,0,0,1,.4248-10.7744,31.9871,31.9871,0,0,1,31.5309-26.6767c2.3008-.02,2.3063-3.5969,0-3.5773A35.957,35.957,0,0,0,25.176,141.62a42.173,42.173,0,0,0-1.9646,14.2133v26.394A1.8147,1.8147,0,0,0,25,184.0159H427.0689c5.43,0,10.87.1023,16.2991,0,.2373-.0045.4751,0,.7126,0a1.8146,1.8146,0,0,0,1.7886-1.7887V159.8218c0-2.85.108-5.73-.0622-8.5778A35.4994,35.4994,0,0,0,439.434,132.9a35.9854,35.9854,0,0,0-29.1576-15.1448c-1.3728-.0093-2.746,0-4.1188,0H77.8408c-6.0965,0-12.2-.0878-18.2965,0-.2665.0039-.5334,0-.8,0A1.79,1.79,0,0,0,58.7443,121.3329Z"/><path d="M122.0094,471.1636h203.955a32.7256,32.7256,0,0,0,10.7675-1.6523,30.74,30.74,0,0,0,2.0546-57.38,32.0322,32.0322,0,0,0-12.5982-2.4523H124.5533c-.8416,0-1.6834-.0045-2.5249,0a30.7422,30.7422,0,1,0-.019,61.4843c2.3023.0144,2.3048-3.5628,0-3.5772a27.1661,27.1661,0,1,1,.3462-54.33q5.489-.0068,10.978,0H314.7991q5.74,0,11.4807,0a27.8352,27.8352,0,0,1,12.59,2.83,27.1706,27.1706,0,0,1-10.2645,51.4424c-3.0406.19-6.1242.057-9.1674.057H122.0094A1.79,1.79,0,0,0,122.0094,471.1636Z"/><path d="M122.0094,559.5168h203.955a32.7231,32.7231,0,0,0,10.7675-1.6524,30.74,30.74,0,0,0,2.0546-57.38,32.0323,32.0323,0,0,0-12.5982-2.4524H124.5533c-.8416,0-1.6834-.0044-2.5249,0a30.7422,30.7422,0,1,0-.019,61.4844c2.3023.0144,2.3048-3.5629,0-3.5772a27.1661,27.1661,0,1,1,.3462-54.33q5.489-.0067,10.978,0H314.7991q5.74,0,11.4807,0a27.8364,27.8364,0,0,1,12.59,2.83,27.1707,27.1707,0,0,1-10.2645,51.4425c-3.0406.19-6.1242.057-9.1674.057H122.0094A1.79,1.79,0,0,0,122.0094,559.5168Z"/><path d="M339.0119,618.0256H117.3811c-3.0025,0-6.0126-.0627-9.0146,0-.1286.0027-.2575,0-.3862,0a1.79,1.79,0,0,0,0,3.5772H329.6112c3.0024,0,6.0126.0627,9.0146,0,.1286-.0027.2575,0,.3861,0a1.79,1.79,0,0,0,0-3.5772Z"/><path d="M293.0444,645.4867H189.4537c-4.79,0-9.6238-.1887-14.4115,0-.0664.0026-.1335,0-.2,0a1.79,1.79,0,0,0,0,3.5772H278.4329c4.79,0,9.6238.1887,14.4115,0,.0664-.0026.1335,0,.2,0a1.79,1.79,0,0,0,0-3.5772Z"/><circle class="cls-2" cx="64.3008" cy="155.3845" r="8.8598"/><circle class="cls-3" cx="98.6661" cy="155.3845" r="8.8598"/><circle class="cls-4" cx="133.0313" cy="155.3845" r="8.8598"/><path d="M708.31,449.398l2.09,11.2487a54.7986,54.7986,0,0,1-10.3242,43.27l-10.27,13.449-37.5611-72.1411"/><path d="M706.5848,449.8734l1.8369,9.8851a56.9237,56.9237,0,0,1,.6857,17.7186,53.1054,53.1054,0,0,1-7.3713,20.8557,112.8718,112.8718,0,0,1-6.849,9.4531l-6.626,8.6769H691.35l-12.7147-24.42-20.2382-38.87-4.6082-8.8506c-1.0635-2.0427-4.1517-.236-3.0888,1.8055l12.7147,24.42,20.2382,38.87,4.6082,8.8506a1.8128,1.8128,0,0,0,3.0888,0l5.8129-7.6121c2.2457-2.9408,4.6127-5.8348,6.6515-8.9259a57.2072,57.2072,0,0,0,8.2579-41.8412q-1.0138-5.4843-2.0379-10.9666c-.42-2.26-3.8683-1.303-3.45.9509Z"/><path class="cls-4" d="M778.7412,723.5853l70.4764,38.6426L794.8342,862.3066s-26.6951-16.4681-10.0255-54.1354a14.7758,14.7758,0,0,0-6.5352-19.0561c-8.628-4.5839-16.9969-8.98-16.9969-8.98"/><path d="M777.8385,725.13l23.9284,13.12,37.8546,20.7559,8.6933,4.7666-.6417-2.4472-5.4063,9.949L829.2827,795.168l-15.71,28.91-13.5838,24.9976-4.4911,8.2647a37.5008,37.5008,0,0,0-2.1145,3.8912,1.6481,1.6481,0,0,1-.0935.172l2.4472-.6416a4.2682,4.2682,0,0,1-.3884-.2575c-.129-.1012-.2707-.1893-.4036-.2855-.2042-.1479-.7615-.5823-.3293-.2407a35.4069,35.4069,0,0,1-3.4791-3.1406,34.9474,34.9474,0,0,1-7.749-12.2737,40.6618,40.6618,0,0,1-1.4381-21.6474,81.2952,81.2952,0,0,1,4.7908-14.7635,16.7109,16.7109,0,0,0-.607-13.4053c-2.7016-5.5448-8.1894-7.8363-13.3542-10.568q-5.2963-2.8014-10.6-5.59c-2.0362-1.07-3.8465,2.0166-1.8055,3.0888q4.4133,2.3185,8.82,4.649c2.7263,1.44,5.4714,2.8517,8.1766,4.3313a12.9841,12.9841,0,0,1,5.8935,16.609A76.9031,76.9031,0,0,0,778.5,821.9658a44.6457,44.6457,0,0,0,1.1222,22.6515,39.4113,39.4113,0,0,0,8.2512,13.9705,29.6573,29.6573,0,0,0,6.0581,5.2632,1.8082,1.8082,0,0,0,2.4472-.6417l5.4063-9.9489,12.9841-23.894,15.71-28.91,13.5838-24.9977c2.1983-4.0453,4.5292-8.0459,6.6056-12.1558.0294-.0582.0623-.1148.0935-.1721a1.8164,1.8164,0,0,0-.6417-2.4472l-23.9285-13.12-37.8546-20.7559-8.6932-4.7665c-2.02-1.1074-3.8269,1.9805-1.8055,3.0888Z"/><path class="cls-1" d="M811.7681,829.7538l-29.4146-15.29c-10.1013,29.8942,8.09,44.7309,11.8263,47.3978l-.0324.059,12.7059,8.2676c2.5372-1.4817,8.7085-3.7186,10.62-7.2047,2.5209-4.597-2.2506-7.2136.27-11.81s7.2919-1.98,9.8124-6.5759-2.2508-7.2132.27-11.81,7.2923-1.98,9.813-6.577-2.25-7.214.2708-11.8113,7.2917-1.9795,9.8122-6.5756c2.5212-4.5977-2.25-7.2143.271-11.812s7.2928-1.9813,9.8142-6.5792-2.25-7.2151.2721-11.8136c1.5393-2.8073,3.917-2.9257,6.11-3.6382a2.4728,2.4728,0,0,0,.3236-4.5791l-5.7743-2.7948-10.0013-4.3405Z"/><path d="M812.6709,828.2094l-25.7365-13.3778-3.6782-1.9119a1.817,1.817,0,0,0-2.6274,1.0689c-3.1377,9.3882-4.2709,19.6406-1.4367,29.2543a39.1816,39.1816,0,0,0,9.6361,16.3491,34.2885,34.2885,0,0,0,4.4488,3.8143l-.6416-2.4472-.0324.059a1.83,1.83,0,0,0,.6417,2.4472l12.7059,8.2676a1.7855,1.7855,0,0,0,1.8055,0c4.676-2.6755,11.947-4.8367,12.26-11.3013.1214-2.5062-1.7924-5.007-1.1-7.4592.858-3.0375,3.8684-3.0355,6.3126-4.0494a7.8458,7.8458,0,0,0,4.8668-7.4637c-.13-2.4339-1.9623-5.0323-.901-7.4279,1.2211-2.756,4.347-2.6012,6.7212-3.7591a7.8071,7.8071,0,0,0,4.2054-7.7716c-.3158-2.6338-2.1124-5.1839-.3734-7.683,1.4988-2.154,4.6495-1.9419,6.76-3.204a7.9273,7.9273,0,0,0,3.587-8.2566c-.4717-2.6055-2.044-5.035.0939-7.3765a6.2739,6.2739,0,0,1,3.187-1.5339,11.1756,11.1756,0,0,0,3.828-1.6415,7.9907,7.9907,0,0,0,2.8576-8.3946c-.614-2.5486-1.92-5.3084.7144-7.2862,2.2821-1.7132,5.8244-.9511,6.7615-4.3474.6762-2.4505-.8316-4.2954-2.9024-5.2977-1.64-.7939-3.269-1.6185-4.9231-2.3828-2.9624-1.3688-5.9932-2.6046-8.9868-3.9038l-1.0852-.471a1.8315,1.8315,0,0,0-2.4472.6417L834.673,784.2182l-19.9213,36.3669-4.528,8.266c-1.1065,2.02,1.9814,3.8273,3.0889,1.8055l12.5195-22.8548,19.9213-36.3669,4.528-8.266-2.4472.6417,8.99,3.9017c.9158.3975,1.81.8255,2.7092,1.2607l2.7727,1.342a5.7983,5.7983,0,0,1,1.602.811c.5683.6214-.0435,1.08-.626,1.2621a17.9778,17.9778,0,0,0-3.9749,1.4292,7.908,7.908,0,0,0-3.6241,8.128c.43,2.5234,1.9746,4.8415.185,7.2217-1.5149,2.0149-4.6131,1.8286-6.66,3.0535a7.9061,7.9061,0,0,0-3.6105,8.1171c.431,2.5251,1.977,4.8386.1858,7.22-1.5136,2.0127-4.6141,1.8279-6.6592,3.0511a7.89,7.89,0,0,0-3.6327,7.9754c.3946,2.5068,1.9724,4.8116.31,7.2075-1.4678,2.115-4.5424,1.9477-6.6353,3.1306a7.8781,7.8781,0,0,0-3.7577,8.05c.3975,2.5029,1.974,4.8155.31,7.2067-1.4709,2.1136-4.54,1.946-6.6349,3.13a7.8467,7.8467,0,0,0-3.79,7.8118c.34,2.4428,1.97,4.8334.4954,7.2017-1.433,2.3014-4.4242,3.6018-6.7588,4.7573-1.0315.51-2.08.9926-3.0795,1.5645h1.8055L795.05,860.3764l.6416,2.4472.0324-.059a1.84,1.84,0,0,0-.6417-2.4472c-.2116-.1515-.4195-.3076-.6275-.464-.0839-.0632.286.2348-.0974-.0791-.1412-.1156-.2843-.2289-.4249-.3452q-1.0422-.8619-2.0115-1.8072a34.3393,34.3393,0,0,1-4.6408-5.5254,36.5354,36.5354,0,0,1-6.153-20.1247,52.15,52.15,0,0,1,2.9508-17.0322l-2.6275,1.0689,25.7366,13.3779,3.6781,1.9118C812.9055,832.3587,814.7165,829.2727,812.6709,828.2094Z"/><path d="M794.0831,820.475l6.239-12.2936c.8012-1.5787,1.6175-3.1508,2.404-4.7369a17.4008,17.4008,0,0,0,1.401-11.9348,17.1722,17.1722,0,0,0-7.5424-10.3665c-1.06-.6625-2.2-1.2146-3.3016-1.8024l-14.6083-7.7932-11.513-6.142c-2.03-1.0832-3.84,2.0037-1.8055,3.0889L789.49,781.3694c3.84,2.0489,7.7307,3.7919,9.9349,7.8277a13.559,13.559,0,0,1,.62,11.5693c-.6032,1.46-1.4143,2.8565-2.1279,4.2626l-6.9226,13.64c-1.0395,2.0484,2.0456,3.8611,3.0889,1.8055Z"/><path d="M837.0909,783.0874a23.4828,23.4828,0,0,1-5.3807-3.8231,16.276,16.276,0,0,1-3.9632-15.6861,21.4791,21.4791,0,0,1,2.2953-4.9507l2.7429-4.7456a1.79,1.79,0,0,0-3.0889-1.8055c-1.898,3.2839-4.1985,6.5618-5.3031,10.2226a20.0378,20.0378,0,0,0,3.8853,18.4928,24.812,24.812,0,0,0,7.0069,5.3845c1.9984,1.151,3.802-1.9389,1.8055-3.0889Z"/><path class="cls-5" d="M786.9138,799.1818a14.2654,14.2654,0,0,1,9.2749.8611"/><path d="M787.3893,800.9065a6.4376,6.4376,0,0,1,.7015-.1684q.1689-.0331.3387-.0609a2.2978,2.2978,0,0,0,.232-.0357c-.0791.0219-.4866.058-.1787.0247.3668-.04.7331-.0726,1.1019-.087q.633-.0248,1.2666.0056.3691.0177.737.0537a2.4653,2.4653,0,0,1,.35.038c-.4374-.109.0226.0048.1024.0176a15.2831,15.2831,0,0,1,1.6911.3715q.4088.1143.8108.2512.25.0851.4972.1784c.0514.0194.513.2052.2464.0921a1.9661,1.9661,0,0,0,1.3783.18,1.7891,1.7891,0,0,0,.4273-3.2691,17.4831,17.4831,0,0,0-7.3947-1.5,12.2374,12.2374,0,0,0-3.2585.4591,1.789,1.789,0,1,0,.951,3.4494Z"/><path class="cls-5" d="M784.0753,792.9531a14.2648,14.2648,0,0,1,7.8987-4.9371"/><path d="M785.62,793.8558c.2022-.2878-.2547.315-.1513.1924.1187-.1409.2334-.2845.3563-.4219a12.9184,12.9184,0,0,1,1.4137-1.348c.0859-.0708.1753-.1378.26-.21-.4282.3613-.1928.1479-.0845.0669q.2979-.2227.6068-.43a15.0048,15.0048,0,0,1,1.3255-.7947q.3469-.1847.7032-.351a1.4832,1.4832,0,0,1,.4263-.1912q-.3672.1536-.0958.0422.1128-.0454.2265-.0892a16.3053,16.3053,0,0,1,1.8427-.5807,1.7891,1.7891,0,0,0-.951-3.4495,17.3859,17.3859,0,0,0-6.7261,3.4056,11.9226,11.9226,0,0,0-2.2416,2.3535,1.7976,1.7976,0,0,0,.6417,2.4472,1.8355,1.8355,0,0,0,2.4472-.6417Z"/><path class="cls-5" d="M776.897,788.072a14.2654,14.2654,0,0,1,5.0121-7.8514"/><path d="M778.6218,788.5475a6.4467,6.4467,0,0,1,.1769-.7194c.0766-.2628.1633-.5225.2578-.7793.0583-.1585.1224-.3145.184-.4717.1072-.273-.2065.4723-.0235.062q.06-.1348.1231-.2685a14.8353,14.8353,0,0,1,1.4706-2.4643q.0684-.093.1382-.185-.2237.2872-.1.13c.0887-.1087.1753-.2189.2653-.3265q.2807-.3356.58-.6548a16.1837,16.1837,0,0,1,1.479-1.3844,1.7952,1.7952,0,0,0,0-2.53,1.8376,1.8376,0,0,0-2.5295,0,16.557,16.557,0,0,0-4.393,5.6093,12.1073,12.1073,0,0,0-1.079,3.0314,1.832,1.832,0,0,0,1.2493,2.2,1.81,1.81,0,0,0,2.2-1.2492Z"/><path class="cls-5" d="M768.4151,783.4851a14.2649,14.2649,0,0,1,5.012-7.8514"/><path d="M770.14,783.9606a6.4467,6.4467,0,0,1,.1769-.7194c.0766-.2627.1633-.5225.2578-.7793.0584-.1585.1224-.3145.1841-.4716.1071-.2731-.2066.4722-.0236.0619q.06-.1348.1231-.2685a14.8421,14.8421,0,0,1,1.4706-2.4643q.0684-.093.1383-.185-.2237.2872-.1.13c.0886-.1088.1753-.2189.2652-.3266q.2807-.3356.58-.6548a16.1837,16.1837,0,0,1,1.479-1.3844,1.7951,1.7951,0,0,0,0-2.5294,1.8373,1.8373,0,0,0-2.5294,0,16.5572,16.5572,0,0,0-4.3931,5.6092,12.1073,12.1073,0,0,0-1.079,3.0314,1.832,1.832,0,0,0,1.2493,2.2,1.81,1.81,0,0,0,2.2-1.2492Z"/><path class="cls-4" d="M550.7058,785.1463l-23.1264,76.9762-109.2066-32.36s10.5507-29.5383,50.8627-21.0744A14.7759,14.7759,0,0,0,486.514,798.329c2.6875-9.3931,5.2456-18.4938,5.2456-18.4938"/><path d="M548.981,784.6708l-7.8519,26.1353-12.4218,41.3458-2.8526,9.4951,2.2-1.2493-10.8564-3.217-26.0732-7.7261-31.5471-9.3481-27.2776-8.083-9.0185-2.6724a39.0565,39.0565,0,0,0-4.2461-1.2582,1.7217,1.7217,0,0,1-.1877-.0556l1.2492,2.2c.0276-.077.1013-.3879.1617-.4111.1607-.0617-.1725.3861-.0716.17.04-.085.0741-.1724.113-.2577.1009-.2208.2014-.4416.3066-.66A33.206,33.206,0,0,1,422.82,825.2a35.98,35.98,0,0,1,9.7549-9.822,39.6494,39.6494,0,0,1,19.8311-6.3413,60.6026,60.6026,0,0,1,14.3628.9838,24.1565,24.1565,0,0,0,7.6254.6291,16.5,16.5,0,0,0,12.2871-8.15c1.6268-2.8425,2.2727-6.1955,3.16-9.3163q1.83-6.4338,3.6422-12.8729c.6241-2.22-2.8264-3.1673-3.4494-.9509q-1.4685,5.2236-2.9519,10.4432c-1.4676,5.17-2.2474,11.166-6.7562,14.6756a13.2755,13.2755,0,0,1-5.9631,2.5878c-2.5453.4216-4.9343-.2042-7.4262-.6347a64.1363,64.1363,0,0,0-14.5311-.9721c-12.7569.7245-24.6265,6.4666-32.0473,17.0139a29.2992,29.2992,0,0,0-3.7111,6.8131,1.8111,1.8111,0,0,0,1.2493,2.2l10.8564,3.217,26.0732,7.7261,31.5471,9.3482,27.2776,8.083c4.404,1.305,8.803,2.8321,13.2646,3.9306.0631.0155.1253.0371.1877.0556a1.8183,1.8183,0,0,0,2.2-1.2492l7.8519-26.1354,12.4217-41.3458,2.8527-9.4951c.6638-2.21-2.7877-3.1537-3.45-.9509Z"/><path class="cls-6" d="M568.619,453.6754,482.7278,776.1876l85.3036,21.4567S627.49,561.7887,633.9027,525.7511s10.7329-85.1279,10.7329-85.1279"/><path d="M566.8943,453.2l-2.297,8.625-6.2512,23.4727L549.1,520.0146,537.82,562.3725l-12.3559,46.3952L512.992,655.597l-11.6274,43.66-9.8237,36.8869-7.06,26.5106c-1.11,4.1687-2.3051,8.3249-3.333,12.5149-.0446.1817-.0964.362-.1446.5429a1.814,1.814,0,0,0,1.2493,2.2l28.87,7.2617,45.9592,11.56,10.4747,2.6347a1.8159,1.8159,0,0,0,2.2-1.2492q1.15-4.5608,2.2954-9.1225,3.0639-12.19,6.1164-24.383,4.4535-17.7858,8.8859-35.5769,5.2591-21.1105,10.4851-42.2293,5.56-22.4755,11.069-44.9638,5.27-21.53,10.4646-43.0786,4.4818-18.6273,8.8448-37.2829c2.0842-8.9614,4.1532-17.9288,6.055-26.9311,2.8838-13.651,4.8222-27.4915,6.6357-41.3189q3.2614-24.8655,5.5642-49.85.1284-1.38.252-2.76c.202-2.2927-3.3764-2.2791-3.5773,0-1.082,12.2807-2.4088,24.5443-3.8508,36.7873-2.0391,17.3128-4.1534,34.72-7.573,51.8246-1.6021,8.013-3.4284,15.9827-5.2564,23.9465q-4.054,17.6621-8.2994,35.2794Q612.832,609.51,607.69,630.534q-5.4628,22.3884-10.9908,44.7611-5.3356,21.6138-10.7119,43.2177-4.658,18.7244-9.34,37.4427-3.4315,13.72-6.8759,27.4361c-1.0962,4.3648-2.5107,8.7681-3.3189,13.198-.0355.1944-.0976.3873-.146.5792l2.2-1.2493-28.87-7.2616-45.9592-11.56-10.4746-2.6347,1.2492,2.2,2.297-8.625,6.2512-23.4727,9.2459-34.717,11.2807-42.3578,12.3559-46.3953,12.4716-46.8292,11.6274-43.66,9.8237-36.887,7.06-26.5106c1.11-4.1686,2.3051-8.3249,3.333-12.5148.0446-.1818.0964-.3621.1446-.543.593-2.2269-2.8567-3.177-3.4495-.951Z"/><path class="cls-6" d="M617.6644,457.7449l-17.787,154.03c-5.1075,46.1138,14.2392,91.8085,51.5048,119.4462a118.0189,118.0189,0,0,0,13.9142,8.92l89.2774,48.5161,43.019-76.7233S723.85,665.367,690.7436,649.7527l12.5854-123.28a102.467,102.467,0,0,0-3.7119-39.5829l-18.1585-50.0126H625.4151"/><path d="M615.8758,457.7449l-1.9174,16.6041-4.5066,39.0254-5.3639,46.45-4.3607,37.7623c-.7756,6.7162-1.7265,13.4494-2.1665,20.1991A134.1976,134.1976,0,0,0,611.93,687.2843a129.367,129.367,0,0,0,51.3256,53.7742c6.9167,3.8691,13.9275,7.5776,20.8908,11.3616l40.0416,21.76,28.0136,15.2235,1.47.7988a1.8179,1.8179,0,0,0,2.4472-.6417l14.5847-26.0114,23.13-41.2515,5.3045-9.46a1.8257,1.8257,0,0,0-.6417-2.4472q-13.3489-8.4288-26.8382-16.6345c-17.6406-10.7862-35.3833-21.4262-53.42-31.54-8.7344-4.8978-17.5342-9.727-26.5913-14.0074l.8859,1.5445,2.7575-27.011,5.4525-53.41,4.0531-39.702a118.84,118.84,0,0,0,.4644-22.4663,103.3965,103.3965,0,0,0-6.01-26.5112l-15.6681-43.1534-.398-1.0963a1.8506,1.8506,0,0,0-1.7247-1.3131H625.4151a1.79,1.79,0,0,0,0,3.5772h56.0435l-1.7248-1.3131L693.98,476.5907c2.2358,6.158,4.52,12.1085,5.8915,18.5388a104.8609,104.8609,0,0,1,1.536,32.6423l-3.6046,35.3094-5.5,53.8784-2.19,21.4561c-.3678,3.6027-.8984,7.23-1.1073,10.8465-.01.1635-.0334.3274-.05.49a1.729,1.729,0,0,0,.8859,1.5444c17.3434,8.1964,33.9538,18.0381,50.4613,27.7762q23.6094,13.9276,46.8636,28.4479,4.77,2.9665,9.5243,5.9577l-.6417-2.4471-14.5847,26.0114-23.13,41.2515-5.3045,9.46,2.4472-.6416L735.2,776.0943,695.5368,754.54l-27.91-15.1674a126.6079,126.6079,0,0,1-43.8657-39.2485,130.1577,130.1577,0,0,1-22.7373-67.1183c-.502-10.0149.4824-19.8431,1.6265-29.7512l3.8924-33.707,5.263-45.5756,4.8534-42.0292,2.67-23.1207.1244-1.0775c.2636-2.2828-3.3158-2.264-3.5772,0Z"/><path d="M573.9309,774.2233l-8.4426-2.1473-20.4057-5.19-24.5844-6.2527-21.3663-5.4342c-3.4425-.8756-6.8806-1.8892-10.3546-2.6336-.0511-.0109-.1015-.0258-.1521-.0386-2.232-.5677-3.1841,2.8814-.9509,3.4494l8.4426,2.1473,20.4056,5.19,24.5845,6.2527,21.3663,5.4342c3.4425.8756,6.8806,1.8892,10.3546,2.6336.051.0109.1015.0258.1521.0387,2.232.5676,3.1841-2.8815.9509-3.45Z"/><path d="M778.4838,700.77l-4.269,7.6189L763.9606,726.69l-12.41,22.1489-10.7375,19.1633c-1.7408,3.1069-3.61,6.1742-5.2355,9.3439-.0239.0466-.0513.0916-.0769.1372-1.1266,2.0107,1.9622,3.8163,3.0888,1.8056l4.269-7.6189,10.2542-18.3008,12.41-22.1489L776.26,712.0569c1.7409-3.107,3.61-6.1742,5.2356-9.3439.0239-.0466.0513-.0916.0769-.1373,1.1265-2.0106-1.9622-3.8162-3.0889-1.8055Z"/><path class="cls-1" d="M453.7373,839.549l8.8321-31.9529c-31.342-3.6575-42.0672,17.2233-43.8979,21.4332l-.0644-.0194-5.4418,14.1485c1.9773,2.1733,5.45,7.7438,9.2575,8.8879,5.021,1.5089,6.5871-3.7028,11.6081-2.1939s3.4541,6.72,8.4743,8.2286,6.5867-3.7029,11.6074-2.1942,3.4548,6.72,8.4756,8.229,6.5875-3.7027,11.6089-2.1937,3.4539,6.72,8.474,8.2285c5.0218,1.509,6.5879-3.7027,11.61-2.1936s3.4559,6.7206,8.478,8.23,6.5887-3.7022,11.6115-2.1929c3.0662.9213,3.6769,3.2223,4.83,5.2186a2.4728,2.4728,0,0,0,4.5461-.6367l1.5316-6.23,2.1637-10.6858Z"/><path d="M455.4621,840.0245l7.7276-27.9574,1.1044-3.9955a1.8172,1.8172,0,0,0-1.7247-2.2641c-9.8274-1.1161-20.0237-.0495-28.8291,4.7a39.1641,39.1641,0,0,0-13.88,12.6956,31.7847,31.7847,0,0,0-2.7329,4.9234l2.02-.822-.0644-.0194a1.8326,1.8326,0,0,0-2.2,1.2492l-5.4418,14.1486a1.7832,1.7832,0,0,0,.46,1.74c3.6992,4.142,7.9871,11.677,14.7216,9.2719,2.3812-.85,4.4145-2.9893,7.0993-2.0638,2.4994.8616,3.0133,3.8264,4.5341,5.7013a7.8142,7.8142,0,0,0,8.3255,2.4388c2.2944-.7667,4.3155-2.9107,6.8875-2.2062,2.6722.7319,3.1562,3.5463,4.65,5.5184a7.8436,7.8436,0,0,0,8.2971,2.8015c2.33-.68,4.3957-2.9442,6.9689-2.3309,2.7478.6549,3.2062,3.3721,4.6776,5.3833a7.8894,7.8894,0,0,0,8.3109,3.0195c2.2607-.6091,4.3046-2.8453,6.7683-2.4406,2.9046.477,3.4083,3.1582,4.8558,5.2466a7.938,7.938,0,0,0,8.2073,3.2939c2.34-.5195,4.3818-2.8415,6.8765-2.53,3.5411.4428,3.3591,4.1145,5.7623,5.8912a4.3036,4.3036,0,0,0,6.6636-2.5113c.5241-1.8532.9249-3.7512,1.3822-5.622.7926-3.2425,1.3477-6.5564,2.01-9.8276l.2677-1.3217a1.8319,1.8319,0,0,0-1.2493-2.2l-24.96-7.488L463.24,840.5325l-9.0274-2.7082c-2.21-.6629-3.154,2.7886-.9509,3.45l24.96,7.488,39.717,11.9151,9.0274,2.7082-1.2492-2.2-2.0418,10.084c-.2446,1.208-.564,2.4-.8582,3.5968-.1557.6332-.4682,4.095-1.6365,3.7965-.8062-.206-1.33-2.0948-1.7371-2.7615a7.8859,7.8859,0,0,0-3.2917-3.1188c-2.9888-1.4155-5.7342-.7747-8.49.7639-2.0878,1.1656-4.5786,1.7823-6.3754-.3341a17.8475,17.8475,0,0,1-1.7034-2.9534,8.6057,8.6057,0,0,0-2.8012-3.12,8.1749,8.1749,0,0,0-8.4189-.064c-2.13,1.1181-4.328,2.4531-6.5913.6656a8.2092,8.2092,0,0,1-1.911-2.8358,10.1177,10.1177,0,0,0-2.3422-3.1887,7.9753,7.9753,0,0,0-8.5461-1.0177c-2.2455,1.0237-4.15,2.7142-6.6972,1.3756-2.1168-1.1123-2.6421-4.0224-4.1613-5.7416a7.827,7.827,0,0,0-8.3214-2.0481c-2.2863.8359-4.2226,2.8508-6.8117,2.0723-2.4813-.7461-2.973-3.4144-4.3408-5.2908a7.8944,7.8944,0,0,0-8.182-3.0512c-2.24.55-4.2032,2.7155-6.5966,2.5078-2.957-.2567-5.2317-3.4051-6.9289-5.5253-.83-1.0367-1.6172-2.112-2.5023-3.1031l.46,1.74,5.4417-14.1485-2.2,1.2493.0644.0193a1.7992,1.7992,0,0,0,2.02-.8219c4.4222-10.1287,14.0206-17.4014,24.9272-19.8819a52.0959,52.0959,0,0,1,17.4263-.6655l-1.7247-2.2641L453.117,835.078l-1.1044,3.9956A1.79,1.79,0,0,0,455.4621,840.0245Z"/><path d="M459.2178,820.3461l13.323,3.5435c1.7075.4541,3.4116.9241,5.1232,1.3626a17.3869,17.3869,0,0,0,12.1056-1.2485,17.1415,17.1415,0,0,0,8.4333-9.6639c.4053-1.1519.7043-2.3482,1.0419-3.5208l4.5956-15.9582,3.577-12.4213c.6382-2.2163-2.8126-3.1626-3.45-.951L496.45,807.5937q-.6581,2.2853-1.3162,4.5707a14.0444,14.0444,0,0,1-4.4531,7.0089A13.4544,13.4544,0,0,1,479.69,822.05c-1.5959-.3114-3.1687-.8042-4.7382-1.2217l-14.7827-3.9316c-2.227-.5923-3.1772,2.8573-.9509,3.4494Z"/><path d="M504.6788,854.5174a23.57,23.57,0,0,1,2.5752-5.9519,16.2714,16.2714,0,0,1,14.5953-7.1624,21.9024,21.9024,0,0,1,5.4547,1.2762l5.1042,1.66c2.1944.7135,3.1345-2.74.951-3.45-3.64-1.1837-7.3183-2.73-11.1648-3.039a19.9065,19.9065,0,0,0-17.0931,7.6188,25.5249,25.5249,0,0,0-3.8719,8.0971c-.71,2.1955,2.7426,3.1359,3.4494.951Z"/><path class="cls-5" d="M478.4662,808.8755a14.2651,14.2651,0,0,1,1.0884,9.2509"/><path d="M476.9218,809.7782c.1146.202.1972.4186.3.626-.3091-.6239-.074-.1744-.0086-.0037q.084.22.16.4427.1751.5145.3082,1.042.16.6321.2638,1.2768c.0212.1319.1459.467.0071.02a2.0642,2.0642,0,0,1,.0439.3877q.0372.3722.0558.7459a15.2463,15.2463,0,0,1-.01,1.6955q-.0292.4773-.0879.952c.0326-.2671.0045-.0412-.0182.1-.0317.1969-.068.3927-.106.5885a1.789,1.789,0,1,0,3.4494.9509,17.53,17.53,0,0,0-.1234-7.5656,12.1573,12.1573,0,0,0-1.1452-3.0636,1.7889,1.7889,0,0,0-3.0889,1.8055Z"/><path class="cls-5" d="M483.9677,804.8026a14.2648,14.2648,0,0,1,6.4731,6.698"/><path d="M483.0649,806.347a8.7953,8.7953,0,0,1,1.4772.8519q.1611.11.3189.2243.0775.0561.1541.1133c.0351.0262.07.053.1049.0791.1818.135-.204-.1582-.2017-.1558.24.2388.5357.4359.788.6645a15,15,0,0,1,1.6417,1.7468c.2395.2993-.215-.2886.018.0224q.12.16.2353.3231.2243.3162.4323.6434a16.22,16.22,0,0,1,.8627,1.5433,1.7992,1.7992,0,0,0,2.4472.6417,1.8339,1.8339,0,0,0,.6417-2.4472,16.4087,16.4087,0,0,0-6.5622-7.06,5.9838,5.9838,0,0,0-.5526-.2795,1.9652,1.9652,0,0,0-1.3782-.18,1.8248,1.8248,0,0,0-1.069.822,1.8056,1.8056,0,0,0-.18,1.3782,1.7207,1.7207,0,0,0,.822,1.069Z"/><path class="cls-5" d="M487.2477,796.7656a14.2654,14.2654,0,0,1,8.7227,3.2679"/><path d="M487.2477,798.5542a6.38,6.38,0,0,1,.7091.021q.1917.0136.3828.0341c.06.0063.12.0141.18.02.3111.0328-.4645-.0712-.1627-.022.3684.06.7347.1236,1.0986.2077q.6286.1451,1.2426.3459.3258.1064.6465.2274a2.4689,2.4689,0,0,1,.3645.1432c-.38-.2213-.031-.0124.07.0331a15.315,15.315,0,0,1,1.5518.81q.4066.2426.7979.51.1691.1154.3347.2353c.052.0375.4954.3782.2418.1783a1.9478,1.9478,0,0,0,1.2648.5238,1.7886,1.7886,0,0,0,1.2647-3.0533,17.4425,17.4425,0,0,0-6.7271-3.3791,12.2254,12.2254,0,0,0-3.26-.4128,1.7887,1.7887,0,0,0,0,3.5773Z"/><path class="cls-5" d="M489.9686,787.5146a14.2648,14.2648,0,0,1,8.7226,3.268"/><path d="M489.9686,789.3032a6.3819,6.3819,0,0,1,.7091.021q.1917.0136.3828.0341c.06.0064.12.0141.18.02.311.0328-.4646-.0711-.1627-.022.3683.06.7347.1237,1.0986.2077q.6286.1452,1.2425.3459.3258.1063.6465.2274a2.4662,2.4662,0,0,1,.3646.1433c-.3805-.2213-.031-.0125.07.0331a15.3029,15.3029,0,0,1,1.5517.81q.4068.2426.798.51.1689.1154.3347.2353c.052.0375.4954.3782.2418.1783a1.9474,1.9474,0,0,0,1.2647.5239,1.7887,1.7887,0,0,0,1.2648-3.0534,17.4425,17.4425,0,0,0-6.7271-3.3791,12.2218,12.2218,0,0,0-3.26-.4127,1.7886,1.7886,0,1,0,0,3.5772Z"/><path d="M673.9851,338.5585c4.6044-1.0654,6.4225-12.4838,6.13-25.7061l-21.3359,8.99C662.1032,332.7369,669.1054,339.6876,673.9851,338.5585Z"/><path d="M674.4606,340.2833c3.8174-.9911,5.2706-5.6862,6.043-9.0579a75.7341,75.7341,0,0,0,1.4-18.373c-.021-1.0324-1.1488-2.1947-2.2642-1.7247l-18.6256,7.8478-2.71,1.142a1.8294,1.8294,0,0,0-1.2492,2.2,34.5617,34.5617,0,0,0,7.6937,13.8809c2.5,2.5845,5.964,4.8683,9.7127,4.0847,2.252-.4708,1.299-3.92-.951-3.45a4.8948,4.8948,0,0,1-1.2239.0072,6.0227,6.0227,0,0,1-1.6875-.5913,13.6459,13.6459,0,0,1-3.7479-3.0357,31.2393,31.2393,0,0,1-6.3467-11.8472l-1.2492,2.2,18.6256-7.8479,2.71-1.142-2.2641-1.7247a76.0644,76.0644,0,0,1-1.0616,16.4394,20.5181,20.5181,0,0,1-1.63,5.2861,6.5568,6.5568,0,0,1-1.0619,1.6,2.048,2.048,0,0,1-1.0632.6555C671.2831,337.4118,672.227,340.8631,674.4606,340.2833Z"/><path class="cls-5" d="M587.854,368.3138l-67.6107,58.85-14.6651,11.9931c-19.973,15.8836-35.295,15.032-69.6335-7.2469l-93.6109-79.9949L364.7917,316.36l109.6993,71.81,5.2382-5.8473,72.103-83.0426a36.7246,36.7246,0,0,1,27.7305-12.6473H598.737"/><path d="M586.5893,367.049l-14.2807,12.43-28.787,25.057-22.1733,19.3c-5.3295,4.6389-10.88,9.0223-16.3488,13.4948-4.6549,3.8068-9.8355,7.297-15.5715,9.2307a33.9705,33.9705,0,0,1-19.7017.2987c-9.298-2.4463-17.8982-7.2414-26.0587-12.2025a62.2759,62.2759,0,0,1-8.4157-5.6856l-18.377-15.704-28.9043-24.7-27.84-23.7906-15.7792-13.4841-.7527-.6432.28,2.1675,19.707-31.2,2.7509-4.3552-2.4472.6417,10.9194,7.148,26.22,17.1637,31.7122,20.759L460.137,380.91c4.4011,2.881,8.7223,6.0233,13.2632,8.6822.0644.0377.1256.0822.1881.1231a1.8009,1.8009,0,0,0,2.1675-.28c4.1906-4.6779,8.3208-9.3976,12.4383-14.14l24.6612-28.4028,27.0293-31.13c4.4012-5.0689,8.78-10.1583,13.204-15.2073a35.4355,35.4355,0,0,1,26.63-12.133c5.7591-.0113,11.5183,0,17.2774,0h1.74a1.79,1.79,0,0,0,0-3.5772H582.1409a53.4849,53.4849,0,0,0-9.5122.636,38.0645,38.0645,0,0,0-15.7584,6.7705,52.3539,52.3539,0,0,0-8.3582,8.1318l-7.9778,9.1882L514.18,339.9241l-26.0417,29.9928c-4.1943,4.8307-8.365,9.6806-12.6337,14.4457l-2.2783,2.5432,2.1675-.28-10.9195-7.148-26.22-17.1637-31.7122-20.7591-27.3967-17.9341c-4.4011-2.881-8.7223-6.0233-13.2633-8.6823-.0643-.0376-.1255-.0821-.188-.123a1.8163,1.8163,0,0,0-2.4472.6416l-19.707,31.2-2.7508,4.3551a1.8014,1.8014,0,0,0,.28,2.1675l11.383,9.7273,26.2253,22.4107,29.8667,25.5225,21.6887,18.5339c1.4306,1.2225,2.8446,2.4684,4.2936,3.6691a13.9436,13.9436,0,0,0,1.37.9635c2.6162,1.6854,5.2568,3.3334,7.9329,4.9222a137.3888,137.3888,0,0,0,14.0988,7.4374c7.1017,3.1681,14.7659,5.6634,22.6339,5.4112A38.8491,38.8491,0,0,0,499.883,445.42a132.761,132.761,0,0,0,13.2061-10.1064c2.88-2.3548,5.8161-4.6548,8.6395-7.0769,5.7473-4.93,11.425-9.9447,17.1367-14.9163l29.29-25.4948,19.9521-17.3669,1.0114-.88c1.74-1.5142-.7993-4.0354-2.5295-2.53Z"/><path class="cls-7" d="M602.7592,361.7555l-66.4183,63.62-14.6651,11.9931c-19.973,15.8836-62.2478,34.3084-96.5863,12.03l-71.5449-64.39,39.2688-51.9534,81.6776,55.1164,5.2382-5.8473,72.103-83.0426a36.7246,36.7246,0,0,1,27.7305-12.6473H598.737"/><path d="M601.4945,360.4908l-11.9054,11.4037L564.323,396.096l-22.9516,21.9845-5.69,5.4507c-1.7116,1.6395-3.6395,3.0611-5.4724,4.56-3.4933,2.8568-6.9307,5.8025-10.5,8.565a105.3418,105.3418,0,0,1-20.0249,12.0329c-16.4121,7.6423-35.4057,11.6714-53.3367,7.6975a61.2543,61.2543,0,0,1-13.992-4.9023,33.4521,33.4521,0,0,1-6.2776-3.6c-1.6824-1.3945-3.2625-2.9363-4.8864-4.3977l-22.322-20.09L372.1057,399.31l-16.4983-14.8484-.798-.7183.28,2.1675,13.3328-17.6394,21.0725-27.88,4.8635-6.4345-2.4472.6417,8.1141,5.4754,19.489,13.1513,23.5855,15.9155,20.4029,13.7681c3.2912,2.2209,6.5183,4.6923,9.9414,6.7084.05.0294.0967.0653.1448.0977a1.7977,1.7977,0,0,0,2.1675-.28c4.1512-4.6339,8.2433-9.3084,12.3221-14.006l24.7157-28.4656,27.14-31.2572c4.3851-5.05,8.7488-10.1206,13.1559-15.152a35.4392,35.4392,0,0,1,26.6485-12.1325c5.7306-.01,11.4614,0,17.192,0h1.8075a1.79,1.79,0,0,0,0-3.5772H582.1955a54.394,54.394,0,0,0-9.4081.608,38.0349,38.0349,0,0,0-15.7631,6.6856,52.1356,52.1356,0,0,0-8.5352,8.2711l-7.9841,9.1955-26.3168,30.31L488.06,370.0072c-4.1636,4.7953-8.3038,9.6095-12.5412,14.34l-2.2924,2.559,2.1675-.28-8.1141-5.4754L447.7907,368l-23.5855-15.9156-20.4029-13.768c-3.2913-2.2209-6.5184-4.6923-9.9414-6.7084-.05-.0294-.0968-.0653-.1448-.0977a1.8312,1.8312,0,0,0-2.4471.6416l-13.3328,17.64L356.8637,377.67,352,384.1048a1.7871,1.7871,0,0,0,.28,2.1675l11.9543,10.759,25.86,23.2735,24.759,22.2831,7.2777,6.55a38.6046,38.6046,0,0,0,9.71,6.0582c17.6609,8.2731,37.8135,7.6913,56.12,1.8828a113.1526,113.1526,0,0,0,37.4188-20.44c4.9986-4.0878,10.146-8.0059,14.8106-12.474L560.07,405.1219,586.4019,379.9l16.7891-16.0817.833-.7978c1.6657-1.5956-.8661-4.1229-2.5295-2.53Z"/><path class="cls-7" d="M598.737,286.4159l61.91,1.4334c9.4349-.6654,14.6391,2.8885,19.6652,16.4493,0,0,22.9457,113.7406,30.4513,159.4038-15.2949-14.319-143.4782-3.637-143.4782-3.637L581.48,319.2772"/><path d="M598.737,288.2046l13.773.3188,27.37.6337,19.5489.4526c2.5357.0587,5.0531-.2184,7.5394.462,4.8838,1.3367,7.7009,5.82,9.7441,10.1711a25.794,25.794,0,0,1,2.1457,5.875q.53,2.6338,1.058,5.268,2.0566,10.2577,4.0946,20.5192,2.9424,14.8113,5.8488,29.63,3.3411,17.04,6.6212,34.0922,3.2489,16.9128,6.399,33.8443c1.782,9.6185,3.5352,19.243,5.1823,28.8857q.4968,2.9091.9768,5.821l2.9894-1.74c-2.2074-2.0425-5.22-3.1037-8.0611-3.9125A83.5037,83.5037,0,0,0,691.1,456.1692a303.7292,303.7292,0,0,0-35.0908-1.7159c-13.1791-.0564-26.3592.2965-39.5259.8464q-16.611.6939-33.2009,1.8092-5.3531.356-10.703.7551a44.6391,44.6391,0,0,0-5.0656.394,2.1892,2.1892,0,0,1-.2282.0188l1.7887,1.7886,1.4126-14.0116,3.3922-33.6455,4.1029-40.6955,3.545-35.1616,1.1668-11.5732c.1826-1.811.4805-3.6509.5516-5.4707.003-.0765.0155-.1538.0232-.23.2307-2.2886-3.3481-2.2725-3.5772,0l-1.4127,14.0115-3.3921,33.6455-4.103,40.6956-3.545,35.1616-1.1668,11.5731c-.1826,1.8111-.4805,3.6509-.5516,5.4707-.003.0766-.0155.1539-.0232.23a1.7934,1.7934,0,0,0,1.7886,1.7886c4.2789-.3563,8.5626-.66,12.8461-.9547q15.5556-1.07,31.1329-1.7931c12.9989-.5984,26.01-1.0121,39.0232-1.0738,12.0662-.0572,24.1785.1093,36.2007,1.2249a105.1034,105.1034,0,0,1,13.3587,1.9276,44.8161,44.8161,0,0,1,5.2025,1.4294c.3484.1217.6937.2511,1.0376.3849.0919.0357.5877.2422.3283.1317-.254-.1082.3185.1434.4049.1835a14.9193,14.9193,0,0,1,1.6733.8972c.2338.1472.4582.3058.6829.4662-.43-.3073.1325.1137.3223.2893a1.8048,1.8048,0,0,0,2.99-1.74c-1.4947-9.0866-3.1224-18.1513-4.7788-27.21q-3.0558-16.7116-6.2578-33.3962-3.3316-17.4551-6.7446-34.8944-3.0519-15.6219-6.148-31.2352Q686.29,325.0432,684,313.5991c-.6434-3.2141-1.1-6.5446-1.95-9.7129a36.22,36.22,0,0,0-2.9481-6.8743,24.6149,24.6149,0,0,0-4.9681-6.9029,15.0439,15.0439,0,0,0-6.1029-3.4553,24.9217,24.9217,0,0,0-7.3835-.5931c-4.6844.0852-9.4088-.2178-14.0916-.3262l-27.5246-.6373-19.2944-.4467-.9994-.0231c-2.3029-.0533-2.3021,3.524,0,3.5773Z"/><path class="cls-5" d="M348.2291,356.9531,324.86,342.8569a37.5673,37.5673,0,0,1-8.72-7.2609v0c-5.7443-6.4862-12.0592-11.345-20.6117-12.7324l-3.3277-6.6883s28.1572-34.7369,32.3053-33.9839l11.6019-.9872a7.7077,7.7077,0,0,1,1.5923-8.1969h0a7.7075,7.7075,0,0,1,11.8807.9176l5.3747,7.6875a40.3583,40.3583,0,0,1,6.6558,16.0425l1.2264,6.88a28.1244,28.1244,0,0,0,12.3525,18.64l1.8137,1.18"/><path d="M349.1318,355.4087l-15.47-9.3315-7.4495-4.4935a37.99,37.99,0,0,1-4.5541-3.1518c-2.6049-2.1436-4.7013-4.7454-7.0886-7.1085-5.144-5.0917-11.35-8.9643-18.5654-10.1846l1.069.822-3.3278-6.6884-.28,2.1675q6.84-8.4359,14.0083-16.6036c3.4752-3.9658,6.9989-7.9038,10.7323-11.63,1.3967-1.394,2.8279-2.751,4.3494-4.0085.1169-.0966.4155-.3271.13-.1084.1363-.1043.2735-.2074.4128-.3076.2725-.1961.55-.3874.84-.5572.1316-.0771.713-.3514.421-.2366-.3387.1331.0263-.01.0954-.0218.4319-.0709-.3869,0-.149.0033.0318,0,.0717.0018.1043-.0007-.8664.0656-.0657.02.1035.01.0539-.0032.1081-.0131.1621-.0138.371-.0048.75-.0638,1.1191-.0952l4.0161-.3417,6.2976-.5359a1.8084,1.8084,0,0,0,1.7247-2.2641,6.056,6.056,0,0,1,2.7693-7.6793,5.9735,5.9735,0,0,1,7.0744,1.3409,34.5392,34.5392,0,0,1,2.4857,3.4774q1.5273,2.1845,3.0546,4.369a40.7842,40.7842,0,0,1,6.75,16.3391c.7764,4.3382,1.3369,8.7158,3.0788,12.8014a29.86,29.86,0,0,0,6.1941,9.2382,40.0169,40.0169,0,0,0,6.8623,5.284c1.9355,1.2589,3.73-1.8368,1.8055-3.0889a35.6325,35.6325,0,0,1-6.1383-4.7246,26.0464,26.0464,0,0,1-5.72-8.7439c-1.5111-3.8748-1.97-8.0934-2.7123-12.1626a44.6363,44.6363,0,0,0-7.6495-17.6332l-3.6406-5.2071a12.4993,12.4993,0,0,0-4.4044-4.4245A9.497,9.497,0,0,0,334.3833,281.68l1.7247-2.2641c-3.8463.3273-7.6958.6285-11.54.9819-.2085.0191,1.2553-.0424-.1094-.0017-.0691.0021-.139-.0012-.2086.0013a3.3033,3.3033,0,0,0-.9484.1878,7.0994,7.0994,0,0,0-1.7153.9013,34.2576,34.2576,0,0,0-4.194,3.5192c-7.5848,7.1812-14.3247,15.328-21.0207,23.3264q-2.7388,3.2715-5.4358,6.5787a1.8857,1.8857,0,0,0-.28,2.1675l2.4149,4.8537a16.91,16.91,0,0,0,.91,1.83c.5826.8778,1.4957.8835,2.4333,1.0815a28.4807,28.4807,0,0,1,2.7959.739,29.3034,29.3034,0,0,1,9.4249,5.205c2.9672,2.4049,5.34,5.32,8.0513,7.9805A54.92,54.92,0,0,0,327.14,346.321l11.7755,7.103,8.4112,5.0735c1.9763,1.1921,3.7766-1.9,1.8055-3.0888Z"/><path class="cls-5" d="M313.1879,313.3862a121.671,121.671,0,0,0-37.0416-4.5537c-12.6954,1.6928-11.8188,10.966.6605,12.293s17.62-.69,31.627,7.5939"/><path d="M313.6634,311.6615a91.9609,91.9609,0,0,0-11.4064-2.6471c-4.0364-.7238-8.11-1.2655-12.1961-1.6132q-3.6462-.31-7.3068-.3995a43.9519,43.9519,0,0,0-7.48.162c-3.0413.4584-6.4984,1.4958-8.5539,3.9432a5.65,5.65,0,0,0-.6428,6.6721c1.5408,2.5456,4.571,3.9,7.3489,4.5762,3.6613.8913,7.5663.9315,11.3148,1.1248a52.6006,52.6006,0,0,1,10.1244,1.2153,48.4036,48.4036,0,0,1,12.6652,5.5686,1.79,1.79,0,0,0,1.8055-3.0889c-6.2-3.644-12.62-6.2738-19.8148-6.9568-3.0282-.2874-6.0733-.3509-9.1068-.5651-3.196-.2257-6.6609-.3927-9.484-2.0795a4.6675,4.6675,0,0,1-1.9464-1.9285,2.1027,2.1027,0,0,1-.0675-1.4c.8768-2.103,4-3.0011,6.1732-3.4352a32.3432,32.3432,0,0,1,6.74-.2492q3.37.0516,6.7327.299,5.82.4236,11.58,1.4007a94.4635,94.4635,0,0,1,12.57,2.85c2.2008.6937,3.1425-2.7587.951-3.4494Z"/><path class="cls-5" d="M313.7043,299.6832s-19.5856-8.0823-39.6322-11.1477c-12.7875-.7209-13.6676,8.5521-1.6593,12.1984s22.931,7.8935,43.0367,15.5374"/><path d="M314.18,297.9584c-4.8242-1.9875-9.7962-3.66-14.7742-5.2122-4.8117-1.5-9.6758-2.8389-14.59-3.9607-4.9023-1.1192-10.1305-2.5892-15.18-1.8474-2.9262.43-6.23,1.795-7.2422,4.837-.931,2.7968.757,5.5925,2.8755,7.3182,3.01,2.4521,6.7638,3.3663,10.3863,4.5239,3.3846,1.0816,6.7471,2.2311,10.0945,3.4224,9.8012,3.4883,19.5013,7.2594,29.2248,10.9564,2.1539.819,3.0853-2.6379.951-3.45-8.3828-3.1872-16.7511-6.4162-25.1747-9.4946-3.232-1.1811-6.4742-2.335-9.7349-3.4349-3.1717-1.07-6.4419-1.9264-9.5755-3.0972-2.24-.8368-5.3275-2.5233-5.727-4.8708.0468.2751-.0048-.3554.0049-.4816.0226-.2954-.0337.2608.0086-.0307a1.4,1.4,0,0,1,.0894-.3292,1.2506,1.2506,0,0,1,.1871-.361,1.6022,1.6022,0,0,1,.36-.4345,6.8053,6.8053,0,0,1,3.3106-1.4693,16.25,16.25,0,0,1,6.0027.0536q3.7787.6419,7.519,1.487c4.7,1.0531,9.3547,2.3076,13.9617,3.7123,5.4188,1.6522,10.8306,3.4528,16.0723,5.6123a1.8015,1.8015,0,0,0,2.2-1.2493,1.8314,1.8314,0,0,0-1.2493-2.2Z"/><path class="cls-5" d="M323.596,290.51s-22.5164-16.3011-41.34-23.847c-12.2881-3.6113-15.2548,5.2182-4.3912,11.5009s20.5338,12.9037,38.3731,24.9215"/><path d="M324.4987,288.9654c-3.9254-2.84-7.9807-5.512-12.0654-8.1153a199.3458,199.3458,0,0,0-25.5143-14.1338c-3.9994-1.79-8.63-3.6234-13.0619-2.2485-3.1331.972-5.07,3.7577-4.2943,7.0464.95,4.0273,4.8075,6.6821,8.15,8.63q4.92,2.8668,9.7211,5.93c9.4286,5.9871,18.64,12.3157,27.9017,18.5555,1.9144,1.29,3.7068-1.8079,1.8055-3.0889-8.019-5.4024-16.0073-10.8551-24.1161-16.1226-3.0708-1.9948-6.1634-3.9564-9.2936-5.8566-3.2105-1.949-7.0616-3.591-9.46-6.5737a5.19,5.19,0,0,1-1.32-3.1254,1.9819,1.9819,0,0,1,1.35-1.755c3.3139-1.5759,7.71.3091,10.8119,1.6977A196,196,0,0,1,309.3676,283.14c4.5175,2.8475,8.9977,5.7831,13.3256,8.914,1.8679,1.3513,3.6554-1.7506,1.8055-3.0888Z"/><path class="cls-5" d="M336.9726,283.8543s-23.2788-24.1216-40.5662-34.7241c-11.5062-5.6255-15.9148,2.58-6.2618,10.5992s18.0726,16.1716,33.6381,31.017"/><path d="M338.2374,282.59a285.8423,285.8423,0,0,0-31.5549-28.4707c-3.6251-2.7763-7.4539-5.9335-11.756-7.5653-3.4617-1.3131-8.8408-2.03-11.0819,1.7745-2.2183,3.7656.5839,8.2592,3.1988,10.97,1.5743,1.632,3.4224,3.0117,5.1415,4.4874q2.3254,1.996,4.6086,4.0408c8.7725,7.8448,17.21,16.0636,25.7244,24.1848,1.6659,1.5889,4.2-.9367,2.5295-2.5295-7.4151-7.0725-14.7825-14.2009-22.3407-21.1213-2.9124-2.6666-5.8611-5.2938-8.8684-7.8531-2.6785-2.28-6.9432-5.1022-7.1934-8.9462A1.9885,1.9885,0,0,1,287.86,249.37c1.6651-.7168,3.7518-.1737,5.3765.3685a23.895,23.895,0,0,1,5.8048,3.2318c1.7966,1.2245,3.5551,2.5045,5.287,3.8187a254.4239,254.4239,0,0,1,20.3262,17.5015c3.7555,3.5322,7.4717,7.1188,11.0534,10.8283,1.6021,1.6592,4.13-.872,2.5295-2.53Z"/><path class="cls-5" d="M377.0042,324.3548l-1.8137-1.18a28.1244,28.1244,0,0,1-12.3525-18.64l-1.2264-6.88a40.3583,40.3583,0,0,0-6.6558-16.0425l-5.3747-7.6875a7.7075,7.7075,0,0,0-11.8807-.9176h0a7.7077,7.7077,0,0,0-1.5923,8.1969l4.6984,11.7441s-9.4137,14.7941-10.26,31.0763"/><path d="M377.9069,322.81a32.3227,32.3227,0,0,1-8.1291-6.9709,26.8572,26.8572,0,0,1-5.2161-11.7859c-.3977-2.1622-.77-4.3292-1.1574-6.4932a43.219,43.219,0,0,0-4.1417-12.2824,65.4191,65.4191,0,0,0-4.6815-7.3134c-1.2993-1.8585-2.5223-3.81-3.9391-5.5831a9.486,9.486,0,0,0-16.6879,7.8044c.4366,2.3552,1.7112,4.6982,2.5931,6.9026l2.5345,6.3352.18-1.3783a67.4623,67.4623,0,0,0-4.9434,9.7392,66.6122,66.6122,0,0,0-5.5611,22.24c-.13,2.3,3.4473,2.2926,3.5773,0,.57-10.0581,4.1819-20.02,9.1561-28.7262a5.5642,5.5642,0,0,0,1.1041-2.35,8.2261,8.2261,0,0,0-.9418-2.67l-3.5978-8.9931a6.6481,6.6481,0,0,1-.2691-5.2129,5.97,5.97,0,0,1,5.1254-3.6425c3.7663-.2088,5.4594,2.8761,7.32,5.5371a80.6694,80.6694,0,0,1,6.04,9.306,47.4908,47.4908,0,0,1,4.0977,13.5654c.8371,4.6959,1.7181,9.2151,4.094,13.4427,2.8059,4.9924,6.9042,8.5391,11.6379,11.6184,1.9355,1.2589,3.73-1.8368,1.8055-3.0889Z"/><path d="M645.388,488.45a23.4141,23.4141,0,0,0,1.21,8.9129,16.5821,16.5821,0,0,0,12.0277,11.2943l-1.2492-2.2c-1.8043,11.7365-3.4716,23.4944-5.1306,35.2523q-3.1134,22.0662-6.124,44.1468-1.4634,10.6854-2.914,21.3724c-.9152,6.74-2.267,13.5878-2.3123,20.4026a56.8107,56.8107,0,0,0,15.879,39.5883,87.2221,87.2221,0,0,0,11.7819,9.5956l15.3491,11.1588,21.68,15.7611L728.36,720.2916l18.9469,13.7743,9.8774,7.1809.45.3271c1.8645,1.3555,3.6516-1.7467,1.8055-3.0888l-6.7649-4.9181L735.7182,721.24l-22.14-16.0959L691.2615,688.92l-17.4264-12.669q-3.8506-2.7994-7.7014-5.5989a53.3039,53.3039,0,0,1-20.75-32.8639c-1.3487-7.0232-.8546-13.8995.0966-20.9271q1.3732-10.1434,2.7561-20.2857,3.0028-22.0185,6.0706-44.0282c1.7727-12.68,3.56-25.3591,5.444-38.0234q.53-3.5593,1.0749-7.1163a1.8288,1.8288,0,0,0-1.2492-2.2,13.077,13.077,0,0,1-9.7272-9.4224,19.2331,19.2331,0,0,1-.8838-7.3353c.1712-2.2964-3.4069-2.2854-3.5773,0Z"/><path d="M599.2459,493.638l-1.8026,7.2741-4.9055,19.7956-7.2551,29.2774-8.8515,35.7194-9.6946,39.1216L556.9522,664.31,547.86,701.0023l-7.71,31.1131-5.5425,22.3662c-.8725,3.521-1.7979,7.0336-2.6186,10.5672-.0357.1537-.076.3065-.1139.46-.5538,2.2346,2.8951,3.1879,3.4494.951l1.8026-7.2741L542.032,739.39l7.2551-29.2774,8.8515-35.7194,9.6946-39.1216,9.7844-39.4839,9.0926-36.6923,7.71-31.1131,5.5425-22.3662c.8725-3.521,1.7979-7.0336,2.6186-10.5672.0357-.1537.076-.3065.1139-.46.5538-2.2346-2.8951-3.1879-3.4494-.951Z"/><path d="M606.4,457.2619l-3.9631,22.9325-2.3124,13.3811c-.7967,4.6105-1.3012,9.1072.034,13.7238,1.5954,5.5161,5.4922,9.9783,8.8066,14.5463,1.3391,1.8455,4.444.0622,3.0888-1.8055-2.4849-3.4248-5.455-6.8221-7.3-10.651a20.2484,20.2484,0,0,1-1.6831-11.9513c.1266-.7751.2675-1.5482.4013-2.3222l4.8475-28.051,1.53-8.8518c.3891-2.2515-3.0576-3.2186-3.4494-.9509Z"/><path d="M469.9089,396.2619l6.2127-7.0569.8787-.9981a1.7886,1.7886,0,1,0-2.5295-2.53l-6.2127,7.057-.8787.998a1.7886,1.7886,0,1,0,2.53,2.53Z"/><path class="cls-5" d="M666.7046,363.5441l67.6108,58.85,14.6651,11.9931c19.9729,15.8837,35.295,15.032,69.6334-7.2469l93.611-79.9948-22.4579-35.555-109.6994,71.81-5.2381-5.8472-72.103-83.0427a36.7246,36.7246,0,0,0-27.7305-12.6473H655.8217"/><path d="M665.44,364.8089,679.9627,377.45,708.88,402.6205l22.1,19.2362c5.3424,4.65,10.9057,9.0527,16.4,13.521,5.1119,4.1573,10.74,7.87,17.04,9.9441a37.2629,37.2629,0,0,0,20.7908.3659c9.2832-2.327,17.9451-6.9961,26.1041-11.8767a73.1175,73.1175,0,0,0,10.2268-6.8266l18.101-15.4681,28.8915-24.6891L896.728,362.734l16.0089-13.68.7527-.6432a1.7987,1.7987,0,0,0,.28-2.1675l-19.707-31.2-2.7509-4.3551a1.8119,1.8119,0,0,0-2.4471-.6417l-10.9195,7.148-26.22,17.1637-31.7122,20.759-27.3967,17.9342-8.9693,5.8713a46.3239,46.3239,0,0,0-4.294,2.8109,2.0126,2.0126,0,0,1-.188.1231l2.1675.28c-4.2266-4.7181-8.3915-9.4791-12.5444-14.2621l-24.8892-28.6654-27.2251-31.3558c-4.2273-4.8687-8.4332-9.7571-12.6825-14.6066a38.9316,38.9316,0,0,0-29.1281-13.1712c-5.7669-.0118-11.534,0-17.3009,0h-1.74a1.79,1.79,0,0,0,0,3.5773H672.235a48.4377,48.4377,0,0,1,9.14.5812,35.1589,35.1589,0,0,1,15.42,7.04,55.64,55.64,0,0,1,6.9721,7.1573l8.2141,9.46,26.2034,30.179,25.9425,29.8786c4.1155,4.74,8.2086,9.4976,12.3971,14.1731l2.2783,2.5433a1.8015,1.8015,0,0,0,2.1675.28l10.9194-7.148,26.22-17.1637,31.7122-20.7591,27.3967-17.9341,8.9692-5.8714a47.1005,47.1005,0,0,0,4.294-2.8109,2.068,2.068,0,0,1,.1881-.123l-2.4472-.6417,19.707,31.2,2.7508,4.3551.28-2.1675-11.1847,9.5579-26.0411,22.2533-29.5395,25.2428-21.9892,18.7908c-1.5288,1.3065-3.02,2.687-4.6,3.9312a71.47,71.47,0,0,1-7.3094,4.5923,148.361,148.361,0,0,1-14.15,7.6576c-6.8684,3.1876-14.3582,5.7452-22.0221,5.5278-6.665-.1891-12.828-2.747-18.3646-6.3332a145.99,145.99,0,0,1-12.7474-9.8942c-2.5829-2.1123-5.2234-4.17-7.7476-6.3526-5.869-5.0746-11.7049-10.1883-17.5572-15.2823l-29.0441-25.2807L668.9807,363.16l-1.0114-.88c-1.7294-1.5053-4.27,1.0146-2.5294,2.5295Z"/><path class="cls-7" d="M666.5534,363.5441l51.6644,57.0616,14.6651,11.9931c19.9729,15.8837,62.2478,34.3084,96.5863,12.03l71.5448-64.39-39.2687-51.9534-81.6777,55.1164-5.2381-5.8472-72.103-83.0427a36.7246,36.7246,0,0,0-27.7305-12.6473L649.86,282.46"/><path d="M665.2887,364.8089l11.5866,12.7971,22.7768,25.1561,16.3015,18.0045a34.37,34.37,0,0,0,3.8959,3.4726q5.6926,4.6554,11.3854,9.3109a107.794,107.794,0,0,0,38.5025,19.7c17.4349,4.9215,36.3313,4.9715,52.9541-2.8109a37.7656,37.7656,0,0,0,9.4837-5.8432l6.4834-5.835,22.6384-20.3746,25.1345-22.6211,15.1264-13.6137.7209-.6488a1.7928,1.7928,0,0,0,.28-2.1675l-13.3013-17.598-21.11-27.929-4.8573-6.4264a1.822,1.822,0,0,0-2.4472-.6417l-8.125,5.4828L833.2057,345.39l-23.6034,15.9276-20.4,13.766-6.6744,4.5039a30.5405,30.5405,0,0,0-3.2169,2.1707,1.3754,1.3754,0,0,1-.1462.0987l2.1675.28c-4.4583-4.9768-8.8472-10.0039-13.2278-15.0492l-26.5807-30.6135-27.446-31.61-8.2249-9.4727a47.3049,47.3049,0,0,0-10.4243-9.4473,38.8216,38.8216,0,0,0-16.8656-5.6947,60.5335,60.5335,0,0,0-7.3552-.0836l-19.84.47-1.5086.0358c-2.2981.0545-2.3067,3.632,0,3.5773l16.3841-.3886,8.1441-.1932a34.7177,34.7177,0,0,1,12.4811,2.06A37.2968,37.2968,0,0,1,702.43,296.8911l7.0212,8.0865,26.3339,30.3294L763.18,366.8585c4.4014,5.0692,8.7744,10.1627,13.2538,15.1631l2.3687,2.6441a1.7994,1.7994,0,0,0,2.1675.28l8.1251-5.4829,19.5117-13.1666,23.6034-15.9277,20.4-13.7659,6.6744-4.5039a31.403,31.403,0,0,0,3.2169-2.1708,1.4109,1.4109,0,0,1,.1462-.0986l-2.4472-.6417,13.3014,17.598,21.11,27.929,4.8573,6.4264.28-2.1675-10.6586,9.5927L865.5628,409.741,841.2193,431.65l-8.6446,7.78c-1.3811,1.243-2.7146,2.6311-4.1864,3.7677a40.0309,40.0309,0,0,1-6.7618,3.8,61.1756,61.1756,0,0,1-13.1089,4.5506,71.3781,71.3781,0,0,1-26.1788.77,104.7033,104.7033,0,0,1-44.2861-18.0775c-3.574-2.5126-6.896-5.3529-10.2753-8.1165l-6.2167-5.084c-.7014-.5737-1.4674-1.1144-2.1191-1.7448-1.3528-1.3084-2.555-2.8219-3.8173-4.2161l-8.5979-9.496-22.7032-25.0749-15.7-17.34-.8051-.8891c-1.5484-1.71-4.0721.8257-2.5294,2.5295Z"/><path d="M787.1792,388.9627l-6.2127-7.0569-.8786-.998a1.7991,1.7991,0,0,0-2.5295,0,1.8316,1.8316,0,0,0,0,2.5295l6.2127,7.0569.8786.998a1.7991,1.7991,0,0,0,2.5295,0,1.8316,1.8316,0,0,0,0-2.53Z"/><circle class="cls-1" cx="230.3614" cy="292.0717" r="78.8015"/><path d="M149.7713,292.0717a80.5855,80.5855,0,1,0,.9881-12.5819,83.7408,83.7408,0,0,0-.9881,12.5819,1.79,1.79,0,0,0,3.5773,0,76.5675,76.5675,0,1,1,.8867,11.8,77.5092,77.5092,0,0,1-.8867-11.8A1.79,1.79,0,0,0,149.7713,292.0717Z"/><path class="cls-7" d="M230.3614,370.8732a78.5544,78.5544,0,0,1-55.72-23.0792l7.3969-23.908a32.6373,32.6373,0,0,1,31.21-23.0914H242.81a32.6375,32.6375,0,0,1,30.4744,20.9531L284.77,349.074A78.5343,78.5343,0,0,1,230.3614,370.8732Z"/><path d="M230.3614,369.0846a76.7837,76.7837,0,0,1-54.4551-22.5553l.46,1.74q3.6606-11.8317,7.3212-23.6633a31.1786,31.1786,0,0,1,12.4491-16.8452,32.0159,32.0159,0,0,1,17.9579-5.1778h27.9137a31.9671,31.9671,0,0,1,18.39,5.5c5.4342,3.7364,8.9873,8.9683,11.5079,14.9649l10.8281,25.7606.3115.7409.46-1.74a76.64,76.64,0,0,1-53.1442,21.2754,1.79,1.79,0,0,0,0,3.5772,80.887,80.887,0,0,0,45.351-13.9679,83.3007,83.3007,0,0,0,10.3227-8.3552,1.7409,1.7409,0,0,0,.46-1.74l-10.506-24.9943c-.5741-1.3659-1.1182-2.75-1.7117-4.1068a34.0788,34.0788,0,0,0-7.27-10.554,34.7061,34.7061,0,0,0-23.4684-9.9294c-9.1472-.199-18.3174-.008-27.4666-.008-5.6362,0-11.0587.5346-16.32,2.77A34.4208,34.4208,0,0,0,182,319.0025c-1.8435,4.0528-2.9493,8.4894-4.2621,12.7325L173.2071,346.38l-.29.9382a1.7863,1.7863,0,0,0,.46,1.74,80.8663,80.8663,0,0,0,42.4986,22.2971,83.2388,83.2388,0,0,0,14.486,1.3059A1.79,1.79,0,0,0,230.3614,369.0846Z"/><path d="M238.763,238.3581h10.5162a11.5576,11.5576,0,0,1,11.5576,11.5577h0a20.591,20.591,0,0,1-20.5911,20.591h-8.32Z"/><path d="M238.763,240.1467H247.99a13.1979,13.1979,0,0,1,4.7782.6339,9.8646,9.8646,0,0,1,5.45,5.1655c2.1013,4.6911.2063,10.7431-2.5577,14.7484a18.8207,18.8207,0,0,1-13.3309,7.92,102.3453,102.3453,0,0,1-10.4041.1041l1.7248,2.2641,5.9745-28.0915.8629-4.0572c.4776-2.2454-2.97-3.2051-3.4494-.951l-5.9746,28.0916-.8629,4.0572a1.8125,1.8125,0,0,0,1.7247,2.2641c3.28,0,6.6156.1869,9.8882-.06a22.4728,22.4728,0,0,0,15.88-8.3227c3.6765-4.64,5.958-11.253,4.5513-17.1694A13.508,13.508,0,0,0,249.2305,236.57c-3.4882-.04-6.979,0-10.4675,0A1.79,1.79,0,0,0,238.763,240.1467Z"/><circle class="cls-5" cx="229.5163" cy="271.602" r="17.303"/><path d="M210.4247,271.602a19.0944,19.0944,0,1,0,15.3771-18.7242,19.3443,19.3443,0,0,0-15.3771,18.7242c-.0228,2.3025,3.5545,2.3044,3.5772,0a15.5132,15.5132,0,1,1,12.5852,15.2433,15.6558,15.6558,0,0,1-12.5852-15.2433C213.9792,269.3014,210.4019,269.2956,210.4247,271.602Z"/><path class="cls-3" d="M252.5139,244.7743a6.349,6.349,0,0,0-6.27-6.3478c-9.83-.1253-20.0917-.1031-28.0015-.0479h0a18.4639,18.4639,0,0,0-16.8827,25.94l1.7988,4.0622,4.5583,10.0223a6.5566,6.5566,0,0,0,12.342-1.1743,18.4986,18.4986,0,0,0,.4777-3.6555c-5.6946-2.19-3.0663-10.5132.8761-9.1991s3.5044,10.5132,3.5044,10.5132,1.3965-.5586,1.9593-6.3592a5.9784,5.9784,0,0,1,5.691-5.3567h1.55a18.3972,18.3972,0,0,0,18.3972-18.3971Z"/><path d="M254.3025,244.7743a8.2852,8.2852,0,0,0-2.8314-6.1608c-1.96-1.6636-4.1714-1.9647-6.6571-1.9928q-9.1377-.103-18.2764-.07c-4.6147.0111-9.5785-.4651-14.06.86a20.1963,20.1963,0,0,0-10.1745,6.96,20.5126,20.5126,0,0,0-4.3136,11.61,23.1546,23.1546,0,0,0,2.4309,10.6063q2.7751,6.2671,5.6491,12.4916a8.3666,8.3666,0,0,0,8.9632,4.8337,8.177,8.177,0,0,0,5.1031-2.9033c1.6982-2.1079,2.0657-4.8067,2.19-7.4362a1.84,1.84,0,0,0-1.3132-1.7247,3.353,3.353,0,0,1-1.8533-4.0332,3.007,3.007,0,0,1,.48-1.1126c.2933-.4431-.1451.1231.2006-.2584.0109-.0121.4229-.3733.2025-.2055.4228-.3218.66-.3605,1.1678.0178,1.1993.8935,1.5906,3.2778,1.7715,4.8228a23.7,23.7,0,0,1,.1474,3.8079,1.8118,1.8118,0,0,0,2.6914,1.5445c1.526-.6677,2.09-3.2086,2.3748-4.6046.357-1.75.1649-3.8361,1.341-5.3a4.4325,4.4325,0,0,1,3.5772-1.5674,22.3253,22.3253,0,0,0,9.7439-1.9921,20.1907,20.1907,0,0,0,11.4461-18.1936,1.79,1.79,0,0,0-3.5773,0,16.7792,16.7792,0,0,1-9.9729,15.2423c-2.6773,1.1755-5.294,1.2416-8.1419,1.3662a7.8505,7.8505,0,0,0-7.386,6.1655c-.3305,1.7347-.3836,3.809-1.0312,5.3223-.0016.0037-.1906.349-.2549.4843-.1712.3606.0692-.0072-.0108.038-.4186.236.3352-.1588.0865-.05l2.6914,1.5444c.1558-3.447-.1586-7.8038-2.4213-10.5712a4.6192,4.6192,0,0,0-5.8953-1.2631,6.6893,6.6893,0,0,0-2.9294,5.5982,6.9136,6.9136,0,0,0,4.6014,6.6467l-1.3132-1.7247c-.1424,3.0238-.9094,6.4011-4.44,6.8545-2.4386.3131-4.215-1.1248-5.1854-3.2328-1.6186-3.5158-3.2325-7.0365-4.8-10.5755a27.6933,27.6933,0,0,1-2.6635-7.7653,16.6492,16.6492,0,0,1,1.9385-9.9892,16.9736,16.9736,0,0,1,7.2837-7.0124c3.4831-1.7434,7.1512-1.6876,10.9458-1.7069q8.7423-.0443,17.4848.0044,2.2734.0144,4.5468.0376a12.3786,12.3786,0,0,1,3.7387.2575,4.6115,4.6115,0,0,1,3.128,4.3292C250.7867,247.0718,254.3642,247.0809,254.3025,244.7743Z"/><path class="cls-5" d="M653.8225,282.1949A32.186,32.186,0,1,1,589.61,286.723Z"/><path d="M652.0339,282.1949a30.4021,30.4021,0,0,1-60.6354,4.5281l-1.7886,1.7886,21.6987-1.53,34.5816-2.4386,7.9323-.5594c2.2834-.161,2.3012-3.7395,0-3.5772l-21.6987,1.53-34.5816,2.4386-7.9323.5594a1.8116,1.8116,0,0,0-1.7887,1.7886,33.9616,33.9616,0,0,0,61.4748,17.5634,33.9946,33.9946,0,0,0,6.3151-22.0915C655.4623,279.9093,651.8839,279.8926,652.0339,282.1949Z"/><polyline class="cls-5" points="639.674 289.121 636.575 248.644 602.946 263.813 603.371 290.478"/><path d="M641.4626,289.1208l-2.7112-35.407-.3883-5.07a1.8173,1.8173,0,0,0-2.6913-1.5444l-29.437,13.2787-4.1917,1.8908a1.7513,1.7513,0,0,0-.8859,1.5444l.3719,23.3467.0529,3.318c.0366,2.3,3.614,2.3066,3.5772,0l-.3719-23.3467-.0528-3.318-.8859,1.5445,29.437-13.2787,4.1917-1.8909-2.6914-1.5444,2.7112,35.4069.3883,5.07c.1746,2.2808,3.7533,2.3,3.5772,0Z"/><path class="cls-5" d="M637.658,262.6182c18.9356-16.4133,12-31.5126,12.4543-42.7733.2639-6.5388-9.1017-20.1772-9.1017-20.1772L587.0051,187.672l-11.8445,18.0721s-22.652,75.2287,40.4021,60.8761"/><path d="M638.9227,263.883c5.6672-4.9544,10.4511-11.0525,12.5492-18.3795,1.5267-5.3318,1.4534-10.8652.9714-16.3384-.2063-2.3416-.47-4.6823-.5451-7.0332a25.0683,25.0683,0,0,0-.7438-6.8626c-1.5446-5.0359-4.2878-9.7555-7.087-14.1871-.6206-.9825-1.41-2.7308-2.582-3.1394a10.8244,10.8244,0,0,0-1.203-.2672l-7.9782-1.7721-26.5833-5.9047c-5.9766-1.3275-11.9405-2.7636-17.94-3.9848-.1-.02-.2-.0445-.3-.0668a1.8558,1.8558,0,0,0-2.02.822l-6.74,10.2837-4.1235,6.2915a9.3851,9.3851,0,0,0-1.1844,2.0018,74.6781,74.6781,0,0,0-2.6632,12.2621,84.0909,84.0909,0,0,0-.8219,23.9561c1.0565,8.1515,3.8985,16.5206,10.3573,21.9894,8.4,7.1123,19.973,7.4794,30.3571,5.8374,1.81-.2863,3.6082-.6427,5.396-1.0462,2.2447-.5067,1.2947-3.9564-.951-3.45a57.3079,57.3079,0,0,1-18.6682,1.5221,26.093,26.093,0,0,1-12.132-4.2718,22.5054,22.5054,0,0,1-4.08-3.7105,16.9485,16.9485,0,0,1-1.568-2.0757,27.4428,27.4428,0,0,1-1.4382-2.4222,26.9029,26.9029,0,0,1-2.0914-5.0862,43.5709,43.5709,0,0,1-1.3715-5.7787c-.2025-1.1939-.2549-1.5888-.3779-2.7241q-.1651-1.5241-.2529-3.0555c-.1166-1.9988-.1423-4.0025-.0955-6.0041.0454-1.94.1592-3.8788.33-5.812q.1245-1.4075.2884-2.8111.0771-.6613.1623-1.3215c.0147-.1152.0928-.6924.0373-.2866q.0513-.3753.1049-.75a120.6388,120.6388,0,0,1,2.8185-13.63c.026-.0988.1349-.3046.1169-.4062.0034.02-.35.587-.0024.1273,1.0664-1.4092,1.9605-2.9914,2.9288-4.4687l8.1986-12.5093.5546-.8463-2.02.822,18.24,4.0515,29.08,6.4594,6.6848,1.4848-1.0689-.822c1.5758,2.2986,3.0212,4.6977,4.3728,7.1335,1.9154,3.4516,4.4206,7.775,4.4892,11.74.0677,3.9221.4164,7.7765.6973,11.6893a38.4253,38.4253,0,0,1-1.0031,13.419c-1.9331,6.7511-6.4181,12.2454-11.6292,16.801-1.7364,1.518.8022,4.0395,2.5295,2.5295Z"/><path d="M597.15,221.8262a7.9846,7.9846,0,0,1,.9741-.5583c.1637-.0823.33-.1584.4961-.2355.2406-.1118.0846-.0345-.0651.0243.1129-.0444.225-.0911.3384-.1343a13.2433,13.2433,0,0,1,1.5176-.476q.416-.1034.8379-.18c.0345-.0062.5625-.0879.1752-.0358.1406-.0189.282-.033.4233-.0461a12.2057,12.2057,0,0,1,2.0925-.0141,4.6015,4.6015,0,0,1,.8.1078q.5669.1072,1.1221.2675a11.5343,11.5343,0,0,1,2.3482.9867,1.7889,1.7889,0,1,0,1.8055-3.0889,14.5569,14.5569,0,0,0-10.2588-1.517,12.7761,12.7761,0,0,0-4.4125,1.8107,1.8356,1.8356,0,0,0-.6417,2.4472,1.8044,1.8044,0,0,0,2.4472.6416Z"/><path d="M574.26,221.83c.344-.167-.4077.1328.127-.0537.4369-.1525.87-.3055,1.3174-.4278a15.6746,15.6746,0,0,1,4.48-.5411,5.941,5.941,0,0,1,5.68,4.1172c.7222,2.3807-.2046,5.105-1.2782,7.2443a22.0193,22.0193,0,0,1-2.8091,4.2638,4.07,4.07,0,0,0-1.2639,2.3068,4.8523,4.8523,0,0,0,.11,1.77c.8893,3.2867,4.7913,3.0861,7.4489,2.7166a1.8,1.8,0,0,0,1.2492-2.2,1.8364,1.8364,0,0,0-2.2-1.2493,6.417,6.417,0,0,1-2.9353-.0779c-.1015-.0443-.1089-.0868-.1179-.1113.0064.0174-.0147-.0688-.013-.1049.0066-.148-.005-.4194.0075-.5l-.46.7892c4.0487-4.552,8.5387-12.2748,4.5879-18.2268-3.3952-5.1148-10.604-5.297-15.7357-2.8038-2.07,1.0058-.2586,4.0917,1.8055,3.0888Z"/><circle cx="576.7628" cy="230.5263" r="2.314"/><path d="M575.3437,230.5791c-.0007-.0748-.0282-.2545.0145-.32l-.0142.1132q.01-.0615.0243-.1224t.0307-.12c.0168-.0594.0383-.1167.0575-.1753.0417-.1266-.0273.0248-.0193.0449-.02-.0506.1506-.2675.179-.316.0989-.1683-.1008.0973-.0137.0118.0353-.0347.065-.0772.0988-.1136.0391-.0419.1684-.2078.219-.2066-.0318-.0008-.1441.0987-.0372.03.051-.0329.1-.0677.1524-.0987.0348-.0207.07-.04.1061-.0592s.0726-.0368.1095-.0537q-.1662.0673-.0722.0312c.0994-.0212.196-.0669.2961-.09.0326-.0075.1252-.0432.1541-.03-.1-.0442-.1533.016-.016.0072a2.3509,2.3509,0,0,1,.3218.0014c.1223.009.1.0659-.0184-.0055a.9551.9551,0,0,0,.1827.0389.8183.8183,0,0,1,.2919.0958l-.1018-.0415q.0551.0257.1087.0543c.0356.0189.0708.0389.1054.06a1.0824,1.0824,0,0,0,.1266.0823c.1087.0449-.1552-.1405-.0132-.0119.09.0817.1732.1653.2578.2528.1164.12-.02-.0368-.0263-.04.0362.0193.0809.1151.1025.15.0308.049.159.2183.1446.2673,0-.0007-.074-.2115-.02-.0435.0188.0591.04.1169.0564.1767.011.04.0209.0806.03.1212s.0168.0822.0235.1236q-.0225-.1839-.0123-.08c.003.097.012.1928.0088.29a.5642.5642,0,0,1-.0139.19c.05-.0816.0295-.1539.0028-.0517-.0261.1-.0467.2-.08.2985l-.0207.0577q-.0535.1365.0193-.0448c.01.0231-.0733.1438-.0835.1618-.0248.0439-.054.0852-.079.1289-.0392.0686-.0486.1608.0163-.01a.9084.9084,0,0,1-.2022.2229,1.211,1.211,0,0,0-.1117.1011c-.0733.0928.1762-.1142.0142-.01-.1028.0659-.2062.1257-.3129.1854-.0945.0529-.0058.0434.0459-.016a.54.54,0,0,1-.1746.061c-.09.0275-.1819.0438-.2733.0651-.1282.03.2265-.0086.017-.0039-.0538.0013-.1075.0063-.1614.0068s-.1071-.0006-.1607-.0038q-.0634-.0037-.1265-.011l.1132.0142c-.0389.0344-.3016-.0718-.36-.0918-.0346-.0119-.1711-.0991-.0639-.0221.1156.083-.0838-.0474-.1109-.0628-.035-.02-.07-.0407-.1036-.0624s-.0673-.0442-.1-.0676q.15.12.038.0291c-.0744-.0677-.1493-.1336-.2176-.2078l-.04-.0449q-.0922-.1112.0263.04a.634.634,0,0,1-.1025-.15q-.0486-.0771-.0908-.1578l-.0276-.0544q-.0614-.1326.016.0459c-.061-.0531-.0922-.2823-.1081-.3554a.6932.6932,0,0,0-.0234-.1236q.0246.2.0093.0481-.0051-.0643-.0065-.129a.8943.8943,0,0,0-1.7886,0,3.2691,3.2691,0,0,0,2.19,2.9886,3.2023,3.2023,0,0,0,3.4805-.9932,3.2057,3.2057,0,1,0-5.67-1.9954.8943.8943,0,1,0,1.7886,0Z"/><circle cx="598.5504" cy="229.15" r="2.314"/><path d="M597.1313,229.2028c-.0007-.0748-.0282-.2546.0146-.32l-.0142.1131q.01-.0615.0243-.1223c.0091-.04.0194-.08.0306-.12.0168-.0593.0383-.1166.0575-.1752.0417-.1266-.0272.0248-.0193.0448-.02-.05.1506-.2674.1791-.3159.0988-.1683-.1009.0973-.0138.0118.0354-.0347.065-.0773.0989-.1136.039-.042.1683-.2078.2189-.2066-.0318-.0008-.1441.0987-.0372.03.051-.0328.1-.0677.1525-.0986q.0522-.0311.1061-.0592t.11-.0538q-.1663.0675-.0723.0313c.0994-.0212.1961-.0669.2962-.09.0326-.0075.1252-.0432.154-.03-.1-.0441-.1532.0161-.0159.0073a2.35,2.35,0,0,1,.3217.0014c.1223.009.1.0659-.0184-.0055a.9706.9706,0,0,0,.1827.0389.8194.8194,0,0,1,.2919.0957l-.1018-.0414q.055.0257.1087.0543c.0356.0189.0708.0389.1054.06a1.1012,1.1012,0,0,0,.1267.0823c.1087.0449-.1553-.1405-.0133-.0119.09.0817.1732.1652.2578.2527.1165.12-.02-.0367-.0262-.04.0361.0193.0808.1151.1025.15.0308.049.1589.2183.1445.2673,0-.0007-.074-.2115-.02-.0435.0188.0591.04.1169.0564.1767.0111.04.021.0806.03.1212s.0167.0822.0234.1236q-.0225-.1839-.0122-.08c.003.0969.0119.1928.0088.29a.5648.5648,0,0,1-.014.19c.05-.0816.03-.1539.0029-.0517-.0262.1-.0468.2-.0805.2984l-.0207.0578q-.0536.1365.0194-.0448c.01.0231-.0733.1438-.0835.1618-.0249.0438-.054.0852-.079.1289-.0393.0686-.0486.1608.0162-.01a.9084.9084,0,0,1-.2022.2229,1.2241,1.2241,0,0,0-.1117.1011c-.0732.0928.1762-.1142.0142-.01-.1028.066-.2062.1258-.3128.1855-.0946.0529-.0059.0433.0458-.016a.5417.5417,0,0,1-.1746.061c-.09.0274-.1819.0437-.2733.0651-.1282.03.2265-.0086.017-.0039-.0538.0012-.1074.0063-.1613.0068s-.1072-.0006-.1608-.0038q-.0633-.0037-.1265-.011l.1132.0142c-.0389.0344-.3015-.0718-.36-.0918-.0346-.0119-.1711-.0991-.0638-.0221.1156.083-.0838-.0474-.1109-.0628-.0351-.02-.07-.0407-.1037-.0624s-.0673-.0442-.1-.0676q.15.12.0381.0291c-.0744-.0677-.1494-.1336-.2176-.2079l-.04-.0448q-.0924-.1111.0262.04a.637.637,0,0,1-.1025-.15q-.0485-.0771-.0908-.1579l-.0275-.0543q-.0613-.1328.0159.0458c-.0609-.053-.0922-.2822-.1081-.3553a.6844.6844,0,0,0-.0234-.1236q.0246.2.0093.0481-.005-.0645-.0065-.129a.8943.8943,0,1,0-1.7886,0,3.2693,3.2693,0,0,0,2.19,2.9886,3.2022,3.2022,0,0,0,3.48-.9932,3.2057,3.2057,0,1,0-5.67-1.9954.8943.8943,0,1,0,1.7886,0Z"/><path d="M592.86,247.9328a3.7085,3.7085,0,0,0,6.6073-3.37Z"/><path d="M592.0879,248.3842a4.6045,4.6045,0,0,0,8.557-1.0868,4.7522,4.7522,0,0,0-.4052-3.1859.91.91,0,0,0-1.2236-.3208l-5.7959,2.9561-.8115.4138a.8945.8945,0,0,0,.9028,1.5445l5.7959-2.9561.8114-.4139-1.2236-.3208q.0421.0825.08.1669-.0456-.1092.013.04c.0378.1143.0765.2272.1065.3439a3.3781,3.3781,0,0,1,.0718.3478c-.0232-.1564.0035.0762.0057.1116q.01.1741.0043.3487c-.0012.0337-.0343.3751-.0084.1936a3.5173,3.5173,0,0,1-.1393.5875c-.01.0315-.1345.3356-.0665.1883q-.0724.1572-.1584.3074-.065.1128-.1378.2209-.0486.0723-.1006.1421.0758-.0991-.0241.0237c-.1237.1327-.3437.3565-.4214.4186a4.43,4.43,0,0,1-.5227.3236,1.914,1.914,0,0,1-.4649.1763c-.1147.0325-.2305.0556-.347.08q-.1623.0261-.0241.0057-.0872.0095-.1747.0147a3.8024,3.8024,0,0,1-.6083-.0139c.181.0183-.1543-.03-.1887-.0383q-.1683-.0378-.3328-.0912c-.0819-.0265-.1639-.0549-.2433-.0884.151.0636-.1493-.0792-.1769-.0942q-.1522-.0831-.2964-.18-.0721-.0486-.1421-.1006.0993.0757-.0236-.0241a4.738,4.738,0,0,1-.4331-.4415c.0849.1025-.1079-.1548-.126-.1831-.0664-.1036-.126-.2107-.1832-.3195a.8944.8944,0,1,0-1.5444.9027Z"/><path d="M635.9742,219.1829a5.6232,5.6232,0,0,0-3.0668.0117,8.4925,8.4925,0,0,0-5.0657,4.5185,22.33,22.33,0,0,0-2.0249,6.2568,1.7891,1.7891,0,0,0,3.45.951,27.9373,27.9373,0,0,1,.7024-2.9531c.1214-.402.254-.8007.4008-1.1942.0642-.1721.1382-.3409.2009-.5133.09-.2461-.1844.4061-.02.05.0474-.1025.0924-.206.14-.3082a11.3885,11.3885,0,0,1,.9375-1.6474c.0336-.0485.0689-.096.1023-.1447.1082-.1576.2682-.2083-.0735.088a2.2935,2.2935,0,0,0,.2077-.2543,7.1782,7.1782,0,0,1,.5232-.5534q.1278-.1212.262-.2353c.0345-.0292.0707-.057.1047-.0869.2121-.1865-.3523.2508-.1793.1375s.3367-.238.5163-.3428c.1557-.0908.318-.1639.4779-.2459.2157-.1105-.5277.1923-.1584.07.0876-.0291.1734-.0624.2617-.09q.2022-.0624.41-.1059c.0716-.015.1449-.0237.2162-.04.2091-.0466-.5894.0575-.2283.0321a5.1248,5.1248,0,0,1,.6787-.0136c.0588.0036.1174.0113.1762.0147.295.0167-.4283-.0743-.32-.0442.0727.02.1521.0246.226.0412a1.8623,1.8623,0,0,1,.1916.0506,1.801,1.801,0,0,0,2.2-1.2492,1.8316,1.8316,0,0,0-1.2492-2.2Z"/><path class="cls-3" d="M664.0929,219.3572l-13.9521,35.1979a12.7666,12.7666,0,0,1-12.1136,8.06l-.3583-.0068-.0109.01-3.08-21.68c2.9576-2.628,6.8378-12.2,6.5011-17.53-.5086-8.0519-4.9507-9.6734-10.5748-9.3182-2.048.1294-4.0839,1.6766-5.8232,3.9655-4.0254,5.7252-2.6573,18.4448-2.6573,18.4448l-5.86-19.1341h0A17.41,17.41,0,0,0,600.3085,206.26l-25.3192-.5453s-36.0242-3.7427-23.5039-44.881H612.3a46.0561,46.0561,0,0,1,39.1432,21.7873l4.9743,8.023h0a12.6227,12.6227,0,0,1,11.893,16.8523Z"/><path d="M662.3681,218.8817l-6.3343,15.98c-2.485,6.2693-4.9435,12.55-7.4554,18.8085a11.6268,11.6268,0,0,1-3.2551,4.6016,10.9489,10.9489,0,0,1-4.4169,2.236,10.7468,10.7468,0,0,1-2.517.3206,2.658,2.658,0,0,0-1.9961.525l2.9894.7893-2.6868-18.9151-.3928-2.765-.46,1.74a17.3237,17.3237,0,0,0,3.547-5.2828,38.8738,38.8738,0,0,0,2.7669-7.5953c1.1319-4.6131,1.2218-10.3857-2.2008-14.1151-2.8036-3.0549-8.6052-3.9317-12.2819-2.1387-4.9536,2.4159-6.7143,7.8567-7.3413,12.9187a46.3764,46.3764,0,0,0-.0974,10.5106l3.5133-.4755-3.22-10.5144c-1.1123-3.632-1.91-7.6432-3.7275-11.0134a19.4565,19.4565,0,0,0-16.6957-10.03c-3.819-.0951-7.6388-.1645-11.4581-.2467l-12.9213-.2783c-.2452-.0053-.4925-.02-.7378-.016-.3661.0064.0142-.0031.1668.0249-.63-.1155-1.2623-.2049-1.89-.3384a30.18,30.18,0,0,1-15.5755-8.1,23.8959,23.8959,0,0,1-6.1041-10.8427c-1.5015-5.7495-1.0948-11.8606.1323-17.62.4122-1.9351.9208-3.8467,1.4919-5.74l-1.7247,1.3131h59.8659a47.0278,47.0278,0,0,1,15.4912,2.4527,44.6255,44.6255,0,0,1,20.0733,14.2033c3.0407,3.7759,5.1747,8.1586,7.8876,12.1555.934,1.376,2.7413.9444,4.1932,1.3019a10.6538,10.6538,0,0,1,4.5821,2.3914,10.9909,10.9909,0,0,1,3.6213,9.3686,26.5291,26.5291,0,0,1-1.72,5.6354l-2.5732,7.2357-.5388,1.5149c-.7728,2.1731,2.6823,3.1083,3.4495.9509l3.8157-10.7294a16.4869,16.4869,0,0,0,1.1736-6.7422,14.6761,14.6761,0,0,0-4.0163-9.1012,14.4493,14.4493,0,0,0-10.3727-4.4044l1.5444.8859c-1.6448-2.6529-3.2818-5.3107-4.9344-7.9587a47.9255,47.9255,0,0,0-41.7823-22.7375H567.1044c-5.1145,0-10.263-.1739-15.3752,0-.0811.0027-.1627,0-.2438,0a1.8293,1.8293,0,0,0-1.7247,1.3131c-3.3372,11.0651-4.5966,24.2048,2.4614,34.1583,4.2188,5.95,10.63,9.8931,17.5672,11.909a26.9672,26.9672,0,0,0,5.0484,1.06c2.315.2069,4.6914.1158,7.0139.1658l15.0478.3241c1.1264.0243,2.2536.0387,3.38.0728a15.793,15.793,0,0,1,9.3533,3.3594,14.861,14.861,0,0,1,4.88,6.6742c.507,1.5387.95,3.1017,1.4243,4.6507l4.082,13.3283.28.9152c.5622,1.8354,3.7349,1.6137,3.5134-.4755-.51-4.8129-.4881-10.13,1.0441-14.7537a10.0014,10.0014,0,0,1,2.6679-4.2093,5.9063,5.9063,0,0,1,4.6562-1.701c2.6213.047,5.023.8652,6.188,3.3805,1.4792,3.1936.9851,6.8918.0763,10.1571a27.5219,27.5219,0,0,1-4.2517,9.3515c-.7578.9817-1.5081,1.4815-1.3149,2.8646.0764.5472.1554,1.094.2331,1.641l.9687,6.8191,1.8528,13.0435c.2023,1.4245,2.1084,1.5935,2.99.7893l.0108-.01-1.2647.5239a14.8249,14.8249,0,0,0,14.2019-9.3794c.7381-1.8234,1.45-3.6579,2.1748-5.4866l9.2742-23.3968,2.4978-6.3015a1.8031,1.8031,0,0,0-1.2493-2.2A1.8289,1.8289,0,0,0,662.3681,218.8817Z"/><path class="cls-5" d="M890.1311,365.929,914.06,345.838a37.5636,37.5636,0,0,0,8.72-7.261h0c5.7444-6.4863,12.0593-11.345,20.6117-12.7325l3.3278-6.6883s-28.1573-34.7368-32.3053-33.9839l-11.6019-.9872a7.7076,7.7076,0,0,0-1.5924-8.1968v0a7.7076,7.7076,0,0,0-11.8807.9176l-5.3747,7.6875a40.3589,40.3589,0,0,0-6.6558,16.0425l-1.2264,6.88a28.1247,28.1247,0,0,1-12.3525,18.64l-1.8137,1.18"/><path d="M891.3958,367.1937l18.006-15.1181a85.1141,85.1141,0,0,1,7.0413-5.6341c3.7007-2.4724,6.5474-5.612,9.615-8.7769a37.8572,37.8572,0,0,1,9.43-7.3255,26.672,26.672,0,0,1,6.0664-2.2983c1.1394-.2806,2.6731-.2306,3.3815-1.2935a6.3519,6.3519,0,0,0,.346-.6956l2.9817-5.9927a1.8818,1.8818,0,0,0-.28-2.1675q-7.04-8.6834-14.4286-17.0827c-3.4994-3.9819-7.0472-7.94-10.826-11.6607a49.7428,49.7428,0,0,0-4.4013-3.9441,6.8773,6.8773,0,0,0-3.6582-1.826c-.1543-.0054-.29.03-.4464.0307-.7115.0056.4134.149.0812-.0343a3.3361,3.3361,0,0,0-1.02-.0868l-3.9278-.3342-6.5449-.5569,1.7247,2.2641a9.5792,9.5792,0,0,0-11.0413-12.5835c-4.6153,1.0281-6.931,5.6853-9.4246,9.252-3.4454,4.928-6.3436,10.02-7.8527,15.9048-1.0625,4.1436-1.33,8.4706-2.5036,12.5853a26.1643,26.1643,0,0,1-5.5368,10.15,33.99,33.99,0,0,1-7.1647,5.8221c-1.9227,1.2507-.1319,4.3491,1.8055,3.0889,4.9481-3.2186,9.2007-6.9763,11.9964-12.2766,2.304-4.368,3.0662-9.0295,3.9194-13.8158a42.5917,42.5917,0,0,1,6.6525-17.1156c1.7812-2.5841,3.5451-5.1947,5.4-7.7261a5.9294,5.9294,0,0,1,10.3,5.7635,1.8086,1.8086,0,0,0,1.7248,2.2641l5.3042.4513c2.0325.1729,4.118.5037,6.1585.524.0453,0,.09.01.1357.0115,1.4267.04-.139-.0444.1777-.0108.3187.0338-.5368-.069-.186-.02a1.0081,1.0081,0,0,1,.3.0985c-.61-.3313.1233.0853.28.1771.2723.16.5335.3383.79.5216.1383.0987.2743.2006.41.3031-.009-.0068-.1246-.1025.1263.1031.357.2925.711.5877,1.0584.8915.7233.6326,1.4257,1.289,2.1177,1.9556,7.414,7.1417,14.0649,15.13,20.6636,23.0161q2.6733,3.1952,5.3064,6.4243l-.28-2.1675-3.3278,6.6883,1.0689-.822c-7.0137,1.1862-13.091,4.8787-18.1506,9.778-2.6579,2.5738-4.9415,5.4666-7.8429,7.7913-1.4818,1.1872-3.1676,2.0786-4.6175,3.2959L894.9573,359.55l-6.091,5.114c-1.7651,1.4821.7766,4.0013,2.5295,2.5295Z"/><path class="cls-5" d="M925.7317,316.3672a121.6754,121.6754,0,0,1,37.0416-4.5537c12.6955,1.6928,11.8188,10.9661-.66,12.293s-17.62-.69-31.627,7.594"/><path d="M926.2072,318.092a88.321,88.321,0,0,1,9.9776-2.3827,119.8259,119.8259,0,0,1,24.1933-2.1689c2.9391.0427,6.6458.4,8.8693,2.6126a2.6785,2.6785,0,0,1,.7149.991,1.3608,1.3608,0,0,1,.0981.3244c.0536.233.0469-.0345.0434.3733a1.812,1.812,0,0,1-.1293.7015,2.9759,2.9759,0,0,1-.6847,1.0006c-1.9885,2.0439-5.2272,2.5857-7.9319,2.8513-3.2225.3164-6.4564.4222-9.6864.6281a45.3816,45.3816,0,0,0-9.9085,1.5671,54.6355,54.6355,0,0,0-12.18,5.5658,1.79,1.79,0,0,0,1.8055,3.0888A50.71,50.71,0,0,1,942.714,328.04a41.2671,41.2671,0,0,1,9.1019-1.4484c3.4987-.2185,7.0073-.3141,10.4921-.7185,3.304-.3835,6.8967-1.2494,9.3589-3.6471a5.8321,5.8321,0,0,0,1.4968-6.6388c-1.182-2.615-4.053-4.0554-6.67-4.8262-4.4339-1.3057-9.3834-.8853-13.9453-.6366a130.5044,130.5044,0,0,0-13.16,1.4129,97.4119,97.4119,0,0,0-14.1319,3.1054c-2.188.69-1.2535,4.1443.9509,3.45Z"/><path class="cls-5" d="M925.2154,302.6642s19.5855-8.0823,39.6322-11.1476c12.7875-.7209,13.6675,8.552,1.6593,12.1983s-22.931,7.8936-43.0367,15.5374"/><path d="M925.6909,304.3889c4.2484-1.75,8.6164-3.2435,12.9889-4.6472,4.3872-1.4085,8.8181-2.6842,13.2911-3.7916q3.6664-.9076,7.3711-1.6518a34.1592,34.1592,0,0,1,7.4256-1.0262,11.4561,11.4561,0,0,1,4.4652.8526,5.1653,5.1653,0,0,1,1.253.8006,2.8546,2.8546,0,0,1,.3329.3515c.0621.0874.3517.6843.2586.43a2.19,2.19,0,0,1-.33,2.1021,8.0551,8.0551,0,0,1-2.9353,2.5883c-2.9072,1.6762-6.3868,2.3778-9.5585,3.4186-3.1864,1.0456-6.3539,2.1479-9.5094,3.2829-9.2981,3.3447-18.514,6.917-27.75,10.4286-2.1309.81-1.2066,4.27.951,3.4494,8.8883-3.3795,17.7593-6.8113,26.7-10.05,3.3663-1.2192,6.7453-2.4042,10.1455-3.5257,3.511-1.1581,7.299-1.9708,10.5536-3.7618,2.605-1.4334,5.3262-3.8643,5.4387-7.06.1073-3.0479-2.3378-5.1029-4.9769-6.06-4.43-1.6064-9.1945-.5186-13.6437.375-5.2008,1.0446-10.3463,2.3586-15.4339,3.8578a182.9647,182.9647,0,0,0-17.99,6.1871,1.85,1.85,0,0,0-1.2492,2.2,1.7987,1.7987,0,0,0,2.2,1.2492Z"/><path class="cls-5" d="M915.3237,293.4908s22.5164-16.3011,41.34-23.847c12.2881-3.6113,15.2548,5.2183,4.3911,11.501s-20.5337,12.9037-38.373,24.9214"/><path d="M916.2264,295.0353A226.914,226.914,0,0,1,950.69,274.233c3.7557-1.8033,7.9525-4.1342,12.2739-3.5856a6.2818,6.2818,0,0,1,1.56.3936c.1734.0771.6777.3821.6613.369a2.2886,2.2886,0,0,1,.4552.4609c.2045.27.1368.1749.2062.3728a2.9347,2.9347,0,0,1,.1137.4345c.0553.2984-.0156-.2383.0037.0718a2.9935,2.9935,0,0,1-.3147,1.6218c-1.4279,3.3463-5.2926,5.0856-8.2341,6.8337q-4.6254,2.7491-9.1493,5.664c-8.9321,5.7252-17.6879,11.7249-26.486,17.6523-1.8992,1.28-.1109,4.38,1.8055,3.0888,8.412-5.6673,16.7878-11.3952,25.31-16.896,3.2439-2.0938,6.515-4.1458,9.83-6.1254,3.544-2.1164,7.4979-4.0742,9.6665-7.7691,1.6354-2.7864,1.6071-6.3279-1.19-8.34-3.185-2.2909-8.2857-1.6817-11.6907-.286a177.8125,177.8125,0,0,0-26.1677,13.84c-5.0678,3.1487-10.0861,6.4147-14.9217,9.9129-1.8478,1.3368-.0642,4.4415,1.8055,3.0889Z"/><path class="cls-5" d="M901.947,286.8353s23.2789-24.1215,40.5662-34.7241c11.5062-5.6254,15.9149,2.58,6.2618,10.5992s-18.0726,16.1717-33.638,31.017"/><path d="M903.2118,288.1a296.9671,296.9671,0,0,1,28.7192-26.26,120.7258,120.7258,0,0,1,10.7109-7.7027,13.0994,13.0994,0,0,1,6.3029-2.088,4.9717,4.9717,0,0,1,2.1148.3023,2.2375,2.2375,0,0,1,.9267.7633c.5425.8658.2738,2.2525-.3125,3.4442a16.8188,16.8188,0,0,1-4.6082,5.2572q-4.3668,3.6441-8.5834,7.4628c-8.3689,7.5475-16.456,15.4068-24.61,23.1839-1.6693,1.5921.8629,4.1191,2.5295,2.5295,7.7876-7.4278,15.5185-14.9239,23.483-22.1635q4.5573-4.1426,9.2672-8.1126c3.1852-2.67,7.1173-6.4347,6.67-11.0279-.3927-4.0306-4.3194-5.5634-7.9183-5.1286-4.967.6-9.0056,3.6295-12.9313,6.4938a240.65,240.65,0,0,0-22.1164,18.64c-4.1434,3.8654-8.2367,7.8-12.1734,11.8774-1.6,1.6567.9267,4.1894,2.5295,2.5294Z"/><path class="cls-5" d="M861.9155,327.3359l1.8137-1.18a28.1247,28.1247,0,0,0,12.3525-18.64l1.2264-6.88a40.3589,40.3589,0,0,1,6.6558-16.0425l5.3747-7.6875a7.7076,7.7076,0,0,1,11.8807-.9176v0a7.7076,7.7076,0,0,1,1.5924,8.1968l-4.6984,11.7441s9.4136,14.7941,10.26,31.0763"/><path d="M862.8182,328.88a35.0168,35.0168,0,0,0,10.46-9.7054,32.5952,32.5952,0,0,0,4.8081-12.7529,71.9381,71.9381,0,0,1,2.7087-11.9061,49.0172,49.0172,0,0,1,6.3645-11.3813l3.0124-4.3088a7.8788,7.8788,0,0,1,2.7687-2.7695c4.7382-2.4446,9.9734,2.3124,8.2831,7.285-.8768,2.5792-2.0261,5.0913-3.0376,7.62l-1.5748,3.9364a2.4049,2.4049,0,0,0,.1664,2.273c5.19,9.161,9.2054,19.2146,9.8073,29.8352.13,2.2888,3.7078,2.3039,3.5772,0a66.608,66.608,0,0,0-5.5611-22.24,67.4453,67.4453,0,0,0-4.9433-9.7391l.18,1.3782c1.55-3.8741,3.14-7.7345,4.65-11.6241a9.492,9.492,0,0,0-14.0428-11.3978c-2.1105,1.4023-3.4216,3.7218-4.8462,5.76-1.3849,1.9808-2.8312,3.9338-4.1312,5.9723a41.8885,41.8885,0,0,0-5.6393,13.7846c-.5128,2.4272-.8919,4.887-1.3271,7.3288a28.5219,28.5219,0,0,1-4.5235,11.4508,30.7486,30.7486,0,0,1-8.9656,8.1126c-1.9227,1.2507-.1319,4.3491,1.8055,3.0889Z"/><path class="cls-1" d="M599.182,345.36l-19.6577-1.2515-5.0463,44.616,3.6919-.8227c10.1823-2.2693,17.6448-10.0252,18.61-19.3415Z"/><path d="M599.182,343.5712,579.5243,342.32a1.8292,1.8292,0,0,0-1.7887,1.7886l-1.7092,15.1124-2.71,23.9582-.6273,5.5454c-.1382,1.2221,1.2481,1.9511,2.2641,1.7247,4.3754-.975,8.6365-1.9959,12.4766-4.44a24.3145,24.3145,0,0,0,10.26-13.0427,41.4279,41.4279,0,0,0,1.2733-8.22l1.1866-11.4584.821-7.9286a1.8022,1.8022,0,0,0-1.7886-1.7886,1.8267,1.8267,0,0,0-1.7886,1.7886l-1.7949,17.3322c-.2139,2.0653-.3713,4.1455-.6454,6.2041a19.8669,19.8669,0,0,1-7.7,12.8944c-3.946,3.0381-8.5037,4.1513-13.25,5.209l2.2641,1.7248,1.7093-15.1124,2.71-23.9582.6272-5.5454-1.7886,1.7886,19.6577,1.2515C601.4808,347.2948,601.472,343.717,599.182,343.5712Z"/></svg>